<svg width="900.94" height="787" xmlns="http://www.w3.org/2000/svg">
 <defs>
  <linearGradient y2="0" x2="0.499993" y1="1.000092" x1="0.499993" id="33dd52eb-d837-4874-aadb-63a17bd6edfc">
   <stop stop-opacity="0.25" stop-color="gray" offset="0"/>
   <stop stop-opacity="0.12" stop-color="gray" offset="0.54"/>
   <stop stop-opacity="0.1" stop-color="gray" offset="1"/>
  </linearGradient>
 </defs>
 <title>coding</title>
 <g>
  <title>background</title>
  <rect fill="none" id="canvas_background" height="402" width="582" y="-1" x="-1"/>
 </g>
 <g>
  <title>Layer 1</title>
  <rect id="svg_1" opacity="0.2" fill="#4dc8dd" height="27" width="52" y="283" x="763.63"/>
  <rect id="svg_2" opacity="0.2" fill="#4dc8dd" height="27" width="52" y="316" x="767.63"/>
  <rect id="svg_3" opacity="0.2" fill="#4dc8dd" height="27" width="52" y="87" x="724.63"/>
  <rect id="svg_4" opacity="0.2" fill="#4dc8dd" height="27" width="52" y="118" x="761.63"/>
  <rect id="svg_5" opacity="0.2" fill="#4dc8dd" height="27" width="52" y="89" x="661.63"/>
  <rect id="svg_6" opacity="0.2" fill="#4dc8dd" height="27" width="52" y="149" x="828.63"/>
  <rect id="svg_7" opacity="0.2" fill="#4dc8dd" height="27" width="52" y="151" x="765.63"/>
  <rect id="svg_8" opacity="0.2" fill="#4dc8dd" height="27" width="52" y="120" x="698.63"/>
  <rect id="svg_9" opacity="0.2" fill="#4dc8dd" height="27" width="52" y="357" x="825.63"/>
  <rect id="svg_10" opacity="0.2" fill="#4dc8dd" height="27" width="52" y="359" x="762.63"/>
  <path id="svg_11" fill="#4dc8dd" d="m130.750002,276s73.29,73.29 31.92,182s70.91,289.64 70.91,289.64s-1.2,-0.18 -3.43,-0.57c-150.52,-26.57 -225.31,-198.72 -141.57,-326.57c31.08,-47.59 56.62,-103.36 42.17,-144.5z"/>
  <path id="svg_12" stroke-width="2" stroke-miterlimit="10" stroke="#535461" fill="none" d="m130.750002,276s41.37,89.84 0,163.12s-7.09,279 102.84,308.52"/>
  <path id="svg_13" fill="#4dc8dd" d="m0.210002,572.42s83.63,-13.32 91.25,61.63s160.82,85.34 160.82,85.34s-1,0.68 -2.87,1.91c-126.49,83 -247.4,52.89 -229.17,-57.36c6.77,-40.99 6.21,-82.16 -20.03,-91.52z"/>
  <path id="svg_14" opacity="0.2" fill="#f5f5f5" d="m0.210002,572.42s83.63,-13.32 91.25,61.63s160.82,85.34 160.82,85.34s-1,0.68 -2.87,1.91c-126.49,83 -247.4,52.89 -229.17,-57.36c6.77,-40.99 6.21,-82.16 -20.03,-91.52z"/>
  <path id="svg_15" stroke-width="2" stroke-miterlimit="10" stroke="#535461" fill="none" d="m0.210002,572.42s64.91,14.25 59.58,73.27s96.4,129.81 192.49,73.7"/>
  <rect id="svg_16" opacity="0.2" fill="#4dc8dd" height="27" width="52" y="284" x="0.63"/>
  <rect id="svg_17" opacity="0.2" fill="#4dc8dd" height="27" width="52" y="315" x="37.63"/>
  <rect id="svg_18" opacity="0.2" fill="#4dc8dd" height="27" width="52" x="318.63"/>
  <rect id="svg_19" opacity="0.2" fill="#4dc8dd" height="27" width="52" y="498" x="728.63"/>
  <rect id="svg_20" opacity="0.2" fill="#4dc8dd" height="27" width="52" y="348" x="41.63"/>
  <rect id="svg_21" opacity="0.2" fill="#4dc8dd" height="27" width="52" y="31" x="355.63"/>
  <rect id="svg_22" opacity="0.2" fill="#4dc8dd" height="27" width="52" y="214" x="165.63"/>
  <rect id="svg_23" opacity="0.2" fill="#4dc8dd" height="27" width="52" y="245" x="202.63"/>
  <rect id="svg_24" opacity="0.2" fill="#4dc8dd" height="27" width="52" y="228" x="301.63"/>
  <rect id="svg_25" opacity="0.2" fill="#4dc8dd" height="27" width="52" y="278" x="206.63"/>
  <rect id="svg_26" opacity="0.2" fill="#4dc8dd" height="27" width="52" y="498" x="798.63"/>
  <path id="svg_27" fill="url(#33dd52eb-d837-4874-aadb-63a17bd6edfc)" d="m720.650002,391.11a412.25,412.25 0 0 1 -6.18,-56.71l0,0a76,76 0 0 0 -53.46,-69.38c-5.46,-1.68 -11.47,-3.25 -18.11,-4.66c-58.2,-12.36 -75.88,-1.57 -77.89,-0.15a74.63,74.63 0 0 1 -4.43,-9.61c-0.1,-0.34 -0.19,-0.68 -0.29,-1a74.51,74.51 0 0 0 19.91,-44.89c9.71,-9.84 15.38,-21.72 15.38,-34.51c0,-11 -4.2,-21.32 -11.55,-30.25l0,-17.38a75.57,75.57 0 0 0 -75.57,-75.57l-6.13,0a75.57,75.57 0 0 0 -75.57,75.57l0,18.73c-6.67,8.61 -10.45,18.44 -10.45,28.88c0,12.52 5.44,24.16 14.78,33.88a74.52,74.52 0 0 0 20.74,46.34c0.41,2.84 0.83,5.89 1.24,9.11l-104.1,21.99s-40.14,1.65 -66,55c-21.87,45.19 -65.39,161.29 -78.28,195.85l0,0c-2.33,6.26 -3.65,9.85 -3.65,9.85s0.43,-0.43 1.24,-1.17l-1.24,3.37s0.63,-0.64 1.83,-1.69c-1.82,14.46 -2.08,39.29 16.86,42.38c15.88,2.59 56.8,3.66 87.71,4.09l0,0l2.14,0c20.49,0.27 36.08,0.27 36.08,0.27l0,-0.27l332.44,0l0,-3.41a22.91,22.91 0 0 0 -1.83,-9l0.46,-0.56a18.25,18.25 0 0 1 3.45,8a8,8 0 0 1 -0.16,0.84l0.2,-0.51a8.56,8.56 0 0 1 -0.2,2.71s42.65,-109.89 42.19,-175.51a111.17,111.17 0 0 0 -1.56,-20.63zm-265.85,-116.75a76.25,76.25 0 0 1 -1.06,-9.48s0,-0.06 0,-0.09c0.37,3.09 0.73,6.29 1.06,9.57zm-129.22,236.04l0,26.19l-16.4,3.51l16.4,-29.7z"/>
  <path id="svg_28" fill="#333333" d="m503.71,57.57l0,0a75.57,75.57 0 0 1 75.57,75.57l0,32.24a0,0 0 0 1 0,0l-151.14,0a0,0 0 0 1 0,0l0,-32.24a75.57,75.57 0 0 1 75.57,-75.57z"/>
  <ellipse id="svg_29" fill="#333333" ry="59.19" rx="86.14" cy="175.95" cx="504.24"/>
  <path id="svg_30" fill="#f7c4a7" d="m449.020002,233.29s18,94.07 0,119.44s55,35.41 55,35.41l75.56,-27.48l10.57,-67.65s-46,-25.9 -36.47,-78.22l-104.66,18.5z"/>
  <path id="svg_31" fill="#f7c4a7" d="m672.040002,550.39s4.76,20.61 -21.14,24.31a146.45,146.45 0 0 1 -46.08,-0.55l-5.71,-51.77l60.25,0l12.68,28.01z"/>
  <path id="svg_32" fill="#f7c4a7" d="m214.700002,524.01s-11.44,46.49 14.46,50.69s121,4.23 121,4.23l0,-55l-43.06,9.2l-40.42,-38.76l-51.98,29.64z"/>
  <path id="svg_33" opacity="0.1" d="m454.580002,263.68l-101.21,21.4s-38.58,1.59 -63.42,52.85s-78.75,197.66 -78.75,197.66s46,-46.51 99.89,3.17l35.94,-65l-7.93,103.06l278.48,0l0,-48.63s58.13,31.18 53.91,48.62c0,0 49.75,-128.18 39,-186.43a396.18,396.18 0 0 1 -5.94,-54.5l0,0a73,73 0 0 0 -51.38,-66.67c-5.24,-1.61 -11,-3.12 -17.4,-4.47c-59.72,-12.68 -75,0 -75,0s-11.57,37.64 -11.36,54.7c0.26,21.93 -31.18,36.47 -31.18,36.47s-46.51,-11.1 -48.62,-20.08s-18.75,-61.58 -15.03,-72.15z"/>
  <path id="svg_34" fill="#ffffff" d="m454.580002,261.57l-101.21,21.4s-38.58,1.59 -63.42,52.85s-78.76,197.68 -78.76,197.68s46,-46.51 99.89,3.17l35.94,-65l-7.93,103.03l278.49,0l0,-48.62s58.13,31.18 53.91,48.62c0,0 49.75,-128.18 39,-186.43a396.18,396.18 0 0 1 -5.94,-54.5l0,0a73,73 0 0 0 -51.38,-66.67c-5.24,-1.61 -11,-3.12 -17.4,-4.47c-59.72,-12.68 -75,0 -75,0s-11.57,37.64 -11.36,54.7c0.26,21.93 -31.18,36.47 -31.18,36.47s-46.51,-11.1 -48.62,-20.08s-18.75,-61.58 -15.03,-72.15z"/>
  <path id="svg_35" opacity="0.1" d="m558.000002,257.08a71.53,71.53 0 0 1 -2.76,-37.52l-104.66,18.49s1.51,7.91 3.22,19.76a71.86,71.86 0 0 0 104.18,-0.73l0.02,0z"/>
  <path stroke="null" style="vector-effect: non-scaling-stroke;" transform="matrix(1,0,0,1,0,0) matrix(1,0,0,1,0,0) matrix(1,0,0,1,0,0) " id="svg_36" fill="#f7c4a7" d="m575.85,203.17a71.88,71.88 0 0 1 -143.73,1.74c0,-0.58 0,-1.16 0,-1.74a71.89,71.89 0 0 1 40.29,-64.59q3.23,-1.58 6.64,-2.84a72.39,72.39 0 0 1 37,-3.44l0,0a71.82,71.82 0 0 1 59.61,66.1q0.19,2.37 0.19,4.77z"/>
  <path id="svg_41" fill="#000000" d="0"/>
  <path id="svg_42" opacity="0.1" d="m423.910002,191.32s74,-92 159.61,0l-7.4,-20.61s-40.17,-58.66 -68.7,-46s-56.55,21.67 -56.55,21.67l-26.96,44.94z"/>
  <path id="svg_43" fill="#333333" d="m423.910002,189.69s74,-92 159.61,0l-7.4,-20.61s-40.17,-58.66 -68.7,-46s-56.55,21.67 -56.55,21.67l-26.96,44.94z"/>
  <path id="svg_44" opacity="0.1" d="m363.130002,387.88s-15.85,42.28 6.34,80.33s-19.55,53.91 -19.55,53.91"/>
  <path id="svg_45" opacity="0.1" d="m619.980002,349.83s27.48,34.88 9.51,66.06s-16.91,106.23 -16.91,106.23"/>
  <path id="svg_46" fill="#000000" d="m338.82,553.3l305.47,0a25.37,25.37 0 0 1 25.37,25.37l0,0a0,0 0 0 1 0,0l-356.2,0a0,0 0 0 1 0,0l0,0a25.37,25.37 0 0 1 25.36,-25.37z"/>
  <path id="svg_47" fill="#cccccc" d="m369.9,378.89l243.32,0a39,39 0 0 1 39,39l0,141.22a0,0 0 0 1 0,0l-321.32,0a0,0 0 0 1 0,0l0,-141.22a39,39 0 0 1 39,-39z"/>
  <circle id="svg_48" fill="#fff" r="19.03" cy="476.93" cx="491.29"/>
  <path id="svg_49" opacity="0.1" stroke-miterlimit="10" stroke="#000" fill="#333333" d="m428.140002,148.2s72.72,-72.68 151.15,-1.33"/>
  <rect id="svg_50" fill="#000000" height="41.39" width="7.3" y="143.57" x="590.36"/>
  <path id="svg_51" fill="#ff0000" d="m582.62,168.35l0,0a25.16,25.16 0 0 1 25.16,25.16l0,1.62a25.16,25.16 0 0 1 -25.16,25.16l0,0a0,0 0 0 1 0,0l0,-51.94a0,0 0 0 1 0,0z"/>
  <rect id="svg_52" fill="#000000" ry="5.68" rx="5.68" height="56.81" width="11.36" y="165.92" x="421.75"/>
  <rect id="svg_53" fill="#6a5c99" transform="rotate(-180 1536.8499755859375,608.2249755859375) " height="41.39" width="7.3" y="587.529994" x="1533.20001"/>
  <path id="svg_54" fill="#ffd037" transform="rotate(180 1539.280029296875,704.3900146484375) " d="m1526.700005,678.42001l0,0a25.16,25.16 0 0 1 25.16,25.16l0,1.62a25.16,25.16 0 0 1 -25.16,25.16l0,0a0,0 0 0 1 0,0l0,-51.94a0,0 0 0 1 0,0z"/>
  <rect id="svg_55" fill="#6a5c99" transform="rotate(-180 1574.590087890625,704.39501953125) " ry="5.68" rx="5.68" height="56.81" width="11.36" y="675.99001" x="1568.909983"/>
  <path id="svg_56" fill="#000000" d="m589.500002,99.33c-9.89,-20.56 -31.43,-45.42 -77.86,-47.41l0,-0.06l-0.56,0l0,0l-16.45,0.78l0,0.08c-46.12,2.12 -67.56,26.89 -77.42,47.38a106.59,106.59 0 0 0 -10.22,44.4l5.68,-0.14l5.68,-0.13a96.65,96.65 0 0 1 9.23,-39.52c12.52,-25.72 35.56,-39.39 68.47,-40.66l0,0l14.55,-0.81l0,0c32.93,1.26 55.98,14.95 68.49,40.66a96.65,96.65 0 0 1 9.25,39.54l5.68,0.13l5.68,0.14a106.59,106.59 0 0 0 -10.2,-44.38z"/>
  <rect id="svg_57" fill="#d6d6e3" height="208" width="774.71" y="579" x="74.28"/>
  <rect id="svg_58" opacity="0.1" height="27" width="774.71" y="593" x="74.28"/>
  <rect id="svg_59" fill="#d6d6e3" height="27" width="878.63" y="576" x="22.31"/>
  <path d="m552.969971,161.9375c0,0 1,0 1,1c0,0 1,1 1,1c0,0 -0.707092,0.292892 0,1c0.707092,0.707108 1,0 1,1c0,0 0,1 1,2c0,0 -0.38269,0.076126 0,1c0.541199,1.306564 0.292908,2.292892 1,3c0.707092,0.707108 1,1 1,1c0,0 -0.229736,0.026749 0,1c0.513733,2.176254 1,2 1,3c0,0 0.292908,-0.707108 1,0c0.707092,0.707108 1,2 1,2c0,0 0,1 1,2c0,0 1,1 1,1c0,1 1,1 1,2c0,0 0,1 1,1c0,0 0,1 0,1c0,0 -0.707092,0.292892 0,1c0.707092,0.707108 1,0 1,1c0,0 0,0 0,1c0,0 -0.707092,0.292892 0,1c0.707092,0.707108 1,0 1,1c0,0 0.292908,-0.707108 1,0c0.707092,0.707108 0.292908,0.292892 1,1c0.707092,0.707108 0,1 0,1c1,0 1,0 1,0c1,1 1,1 1,1c0,0 1,0 1,0c0,0 1,0 1,0c0,0 0,-1 0,-1c0,0 0,0 0,-1c0,0 0,0 0,-1c0,-1 -1,-2 -1,-2c0,0 0,-1 0,-1c0,-1 0,-2 0,-2c0,-1 0,-1 0,-2c0,-1 0,-1 0,-2c0,-1 0,-2 0,-2c-1,-1 -1,-1 -1,-1c0,0 0,-1 0,-1c-1,-1 -2,-2 -2,-2c0,-1 -1,-1 -1,-1c-1,-1 -0.292908,-1.292892 -1,-2c-0.707092,-0.707108 -1,-1 -1,-1c0,0 -1,0 -1,0c-1,-1 -2,-2 -2,-2c-1,-1 -1,-1 -2,-2c0,0 0,0 -1,0c0,0 0.707092,-0.292892 0,-1c-0.707092,-0.707108 -1,0 -1,0c-1,0 -1,-1 -1,-1c-1,0 -0.292908,-0.292892 -1,-1c-0.707092,-0.707108 -1,0 -3,0l0,0l0,-1l-1,0" id="svg_60" stroke-opacity="null" stroke-width="null" stroke="null" fill="#000000"/>
  <rect id="svg_62" fill="#000000" height="41.39" width="7.3" y="141.57" x="411.36"/>
  <rect id="svg_63" fill="#000000" ry="5.68" rx="5.68" height="56.81" width="11.36" y="163.92" x="575.75"/>
  <path transform="rotate(-180 411.20001220703125,195.32000732421875) " id="svg_65" fill="#ff0000" d="m398.62,169.35l0,0a25.16,25.16 0 0 1 25.16,25.16l0,1.62a25.16,25.16 0 0 1 -25.16,25.16l0,0a0,0 0 0 1 0,0l0,-51.94a0,0 0 0 1 0,0z"/>
 </g>
</svg>