<svg width="1038.23" height="693.31" xmlns="http://www.w3.org/2000/svg">

 <title>version control</title>
 <g>
  <title>background</title>
  <rect fill="none" id="canvas_background" height="402" width="582" y="-1" x="-1"/>
 </g>
 <g>
  <title>Layer 1</title>
  <path id="svg_1" opacity="0.1" fill="#ff6347" d="m615.240001,111.400002c-64.72,-2.25 -126.36,-23.14 -185.23,-46s-117.16,-48.19 -180.33,-60.3c-40.63,-7.79 -87.09,-8.89 -119.83,12.89c-31.5,21 -41.68,57.15 -47.16,90.72c-4.11,25.27 -6.54,51.85 4.75,75.5c7.83,16.42 21.74,30.22 31.36,45.95c33.46,54.72 9.81,122.2 -26.46,175.63c-17,25.06 -36.74,49 -49.87,75.66s-19.2,57.25 -7.72,84.47c11.39,27 38.52,47.24 67.9,61.49c59.69,28.94 130,37.23 198.62,41.92c151.82,10.39 304.46,5.89 456.68,1.39c56.34,-1.67 112.92,-3.36 168.34,-12.07c30.78,-4.84 62.56,-12.52 84.9,-31c28.36,-23.53 35.39,-63.38 16.39,-92.88c-31.88,-49.49 -120,-61.79 -142.31,-114.9c-12.27,-29.23 0.33,-61.8 18.15,-88.91c38.24,-58.17 102.33,-109.19 105.71,-175.68c2.32,-45.66 -28.49,-91.39 -76.13,-113c-49.94,-22.65 -119.18,-19.8 -156,17.69c-37.96,38.56 -104.62,53.41 -161.76,51.43z"/>
  <path id="svg_3" fill="#fbbebe" d="m125.020001,649.540002c-2.11,-4.8 -4.11,-10.32 -2,-15.12a12.85,12.85 0 0 1 6.65,-6.25a32,32 0 0 1 9,-2.22a125.61,125.61 0 0 1 29.26,-0.4c0.71,5.62 -0.79,11.32 -2.08,16.75c-1.17,5 -1.84,5.74 -7,6c-3.34,0.18 -33.04,3.01 -33.83,1.24z"/>
  <ellipse id="svg_4" fill="#464353" ry="40" rx="143" cy="577.16" cx="214.07"/>
  <ellipse id="svg_5" opacity="0.1" ry="40" rx="143" cy="577.16" cx="214.07"/>
  <path id="svg_6" fill="#fbbebe" d="m239.710001,366.000002a44.49,44.49 0 0 1 -22.94,20.84a57.58,57.58 0 0 1 -18.21,3.46c-6.79,0.31 -13.72,-0.13 -20.1,-2.45c-8.56,-3.1 -15.67,-9.44 -21,-16.83s-9,-15.83 -12.19,-24.34c-1.68,-4.43 -3.28,-9.15 -2.49,-13.83c5.15,-1.17 10.79,-2.89 13.45,-7.46c2.27,-3.92 1.64,-8.62 0.33,-13.1c-0.37,-1.27 -0.8,-2.53 -1.23,-3.74c-1,-2.9 -4.45,-8.41 -2,-10.89c1.53,-1.57 7.94,-2.37 10.15,-3.39c6.81,-3.14 13.09,-7.68 20.57,-9.17c6.47,-1.29 13.15,-0.08 19.61,1.26a6.45,6.45 0 0 1 2.42,0.87a5.82,5.82 0 0 1 1.8,2.7c1.84,4.48 2.92,9.43 4.4,14.1c1.54,4.89 3.52,9.48 7.23,12.95c2.89,2.71 6.57,4.41 10.17,6.06l8.86,4.06a11.65,11.65 0 0 1 4.19,2.71a10.61,10.61 0 0 1 2,5.44a50.82,50.82 0 0 1 -5.02,30.75z"/>
  <path id="svg_7" opacity="0.1" d="m212.240001,304.030002a46,46 0 0 1 -55.67,8.26c-0.37,-1.27 -0.8,-2.53 -1.23,-3.74c-1,-2.9 -4.45,-8.41 -2,-10.89c1.53,-1.57 7.94,-2.37 10.15,-3.39c6.81,-3.14 13.09,-7.68 20.57,-9.17c6.47,-1.29 13.15,-0.08 19.61,1.26a6.45,6.45 0 0 1 2.42,0.87a5.82,5.82 0 0 1 1.8,2.7c1.79,4.48 2.87,9.43 4.35,14.1z"/>
  <circle id="svg_8" fill="#fbbebe" r="46" cy="270.16" cx="179.07"/>
  <path id="svg_9" fill="#ff6347" d="m319.220001,419.450002l-3.78,-22.9c-1.91,-11.49 -3.88,-23.2 -9.22,-33.55c-3.51,-6.78 -9.08,-13.24 -16.59,-14.58a16.05,16.05 0 0 1 -4.32,-1c-2.2,-1.06 -3.4,-3.44 -5.09,-5.2c-4.36,-4.52 -11.46,-4.59 -17.3,-6.89c-5.16,-2 -9.38,-5.85 -14.08,-8.79s-10.55,-5 -15.75,-3.12c-0.84,8.95 -1.73,18.1 -5.53,26.25a39.28,39.28 0 0 1 -59.26,14.76c-8.91,-6.71 -14.62,-17.06 -17.28,-27.89c-0.65,-2.64 -1.39,-5.67 -3.82,-6.88c-2.63,-1.32 -5.79,0.28 -8,2.22c-4,3.59 -7.27,8.73 -12.53,9.94c-1.9,0.44 -4,0.35 -5.58,1.5a12.7,12.7 0 0 0 -2.6,3.37a12,12 0 0 1 -10.23,5.06c-1.83,-0.09 -4,-0.51 -5.25,0.82c-0.93,1 -1,2.56 -2,3.49c-1.35,1.31 -3.54,0.67 -5.42,0.6c-3.56,-0.15 -6.87,2.13 -8.91,5s-3,6.42 -4,9.86c10.93,24.34 20.93,48.71 31.86,73.05a6.23,6.23 0 0 1 0.79,3a7.31,7.31 0 0 1 -1.36,3c-5.36,8.61 -5.19,19.44 -4.6,29.56s1.31,20.81 -3.21,29.88c-1.23,2.49 -2.83,4.77 -4,7.26c-2.74,5.64 -3.73,23.68 -2.13,29.74l226.08,0c-4.31,-11.85 -2.67,-35.63 -1.77,-48.21c0.63,-8.8 -1,-17.59 -1.7,-26.39c-1.53,-17.97 -0.45,-35.02 -3.42,-52.96z"/>
  <path id="svg_10" fill="#fbbebe" d="m65.360001,445.650002a35.4,35.4 0 0 0 -0.12,8.73l2.87,41.27c0.27,3.89 0.54,7.77 0.9,11.65c0.69,7.53 1.72,15 3,22.46a4,4 0 0 0 4.1,3.89c12.65,2.68 25.72,2.57 38.63,1.84c19.7,-1.1 39.37,-3.61 59.1,-3.18c5.08,0.11 11,0 14.08,-4s1.29,-10.47 -2.73,-13.7s-9.48,-4 -14.64,-4c-6.83,-0.07 -13.66,0.9 -20.47,0.5c-6.25,-0.37 -12.36,-1.88 -18.42,-3.39l-17,-4.23c0.65,-5.15 2.61,-10 4.47,-14.89c3.34,-8.67 6.46,-17.63 6.52,-26.92s-3.44,-19.06 -11.05,-24.38c-6.26,-4.37 -14.32,-5.18 -21.95,-5c-5.55,0.16 -15.14,-1.17 -20.21,1c-4.01,1.76 -6.33,8.42 -7.08,12.35z"/>
  <path id="svg_11" fill="#464353" d="m330.790001,540.010002c3.33,-1.27 7,-0.81 10.57,-0.33c11.49,1.57 23.15,3.18 33.8,7.77c5,2.14 9.76,5 13.14,9.21c3,3.79 4.75,8.43 6.41,13l3.84,10.52c1.46,4 2.94,8.08 3.35,12.33c1.2,12.59 -7.41,24.46 -18.24,31s-23.58,8.87 -36,11.31s-24.89,5.14 -37.26,8a150,150 0 0 1 -17.53,3.45c-13.24,1.5 -27.08,-0.71 -39.66,3.67c-5,1.75 -9.91,4.35 -15.1,5.56a93.93,93.93 0 0 1 -10.44,1.59l-23.81,2.72a129.89,129.89 0 0 1 -14.6,1.12c-10.4,0 -20.63,-2.46 -30.73,-4.92a7.77,7.77 0 0 1 -3,-1.21c-1.6,-1.26 -1.95,-3.49 -2.18,-5.51q-1.53,-13.41 -2.68,-26.85c-0.24,-2.91 -0.42,-6.06 1.17,-8.51c2,-3 5.9,-3.94 9.46,-4.52a246.88,246.88 0 0 1 45.68,-3.17c5.81,-5.81 15.39,-5.84 23,-9a68.39,68.39 0 0 0 8.11,-4.41a106,106 0 0 1 44.53,-14.07a41.45,41.45 0 0 0 9.11,-1.3c5.89,-1.83 11.26,-6.81 17.31,-5.59c0.75,-2.07 1.27,-4.84 3,-6.26c0.86,-0.73 1.92,-1.22 2.71,-2c1.67,-1.69 1.82,-4.35 1.57,-6.71s-0.81,-4.78 -0.2,-7.08a9.79,9.79 0 0 1 1.11,-2.47c3,-5.18 7.53,-7.84 13.56,-7.34z"/>
  <path id="svg_12" opacity="0.05" d="m330.790001,540.010002c3.33,-1.27 7,-0.81 10.57,-0.33c11.49,1.57 23.15,3.18 33.8,7.77c5,2.14 9.76,5 13.14,9.21c3,3.79 4.75,8.43 6.41,13l3.84,10.52c1.46,4 2.94,8.08 3.35,12.33c1.2,12.59 -7.41,24.46 -18.24,31s-23.58,8.87 -36,11.31s-24.89,5.14 -37.26,8a150,150 0 0 1 -17.53,3.45c-13.24,1.5 -27.08,-0.71 -39.66,3.67c-5,1.75 -9.91,4.35 -15.1,5.56a93.93,93.93 0 0 1 -10.44,1.59l-23.81,2.72a129.89,129.89 0 0 1 -14.6,1.12c-10.4,0 -20.63,-2.46 -30.73,-4.92a7.77,7.77 0 0 1 -3,-1.21c-1.6,-1.26 -1.95,-3.49 -2.18,-5.51q-1.53,-13.41 -2.68,-26.85c-0.24,-2.91 -0.42,-6.06 1.17,-8.51c2,-3 5.9,-3.94 9.46,-4.52a246.88,246.88 0 0 1 45.68,-3.17c5.81,-5.81 15.39,-5.84 23,-9a68.39,68.39 0 0 0 8.11,-4.41a106,106 0 0 1 44.53,-14.07a41.45,41.45 0 0 0 9.11,-1.3c5.89,-1.83 11.26,-6.81 17.31,-5.59c0.75,-2.07 1.27,-4.84 3,-6.26c0.86,-0.73 1.92,-1.22 2.71,-2c1.67,-1.69 1.82,-4.35 1.57,-6.71s-0.81,-4.78 -0.2,-7.08a9.79,9.79 0 0 1 1.11,-2.47c3,-5.18 7.53,-7.84 13.56,-7.34z"/>
  <path id="svg_13" fill="#3f3d56" d="m134.220001,655.720002c-6.19,7.17 -11.64,9.73 -21.33,9.5q-8.94,-0.21 -17.86,-0.93a100.2,100.2 0 0 0 -12.24,-0.57c-12.34,0.48 -24.25,6.13 -36.56,5.14a25.92,25.92 0 0 1 -5.37,-1a15.63,15.63 0 0 1 -7.29,-4.42c-2.36,-2.67 -3.49,-6.21 -4.14,-9.71c-3.29,-17.94 5.73,-37.48 21.52,-46.61a15.78,15.78 0 0 1 6.84,-2.43a16.21,16.21 0 0 1 6.92,1.52l0.15,0.06a52.33,52.33 0 0 1 17.14,11.44a9.66,9.66 0 0 0 2.62,2.11a9,9 0 0 0 3.09,0.58l13.14,0.83a31.14,31.14 0 0 1 6.6,0.91a52.46,52.46 0 0 1 6.94,3c7.07,3.16 14.91,4 22.55,5.22a3.37,3.37 0 0 1 2,0.8a3.13,3.13 0 0 1 0.62,1.3a25.51,25.51 0 0 1 -5.34,23.26z"/>
  <path id="svg_14" opacity="0.1" d="m64.860001,606.280002a78.9,78.9 0 0 0 -13.15,16.44a82.28,82.28 0 0 0 -10.74,32.54a60.4,60.4 0 0 0 -0.11,12.61a15.63,15.63 0 0 1 -7.29,-4.42c-2.36,-2.67 -3.49,-6.21 -4.14,-9.71c-3.29,-17.94 5.73,-37.48 21.52,-46.61a15.78,15.78 0 0 1 6.84,-2.43a16.21,16.21 0 0 1 6.92,1.52l0.15,0.06z"/>
  <path id="svg_15" fill="#fbbebe" d="m319.350001,631.160002c7.35,-0.2 15.6,-0.57 21,4.38c5.15,4.68 5.83,12.4 6.17,19.35l0.39,8.07c0.12,2.46 0.22,5 -0.77,7.28c-1.76,4 -6.59,5.93 -11,5.7s-8.46,-2.16 -12.49,-3.9a175.7,175.7 0 0 0 -34,-10.71q0.57,-8.37 1.9,-16.66c0.61,-3.83 0.71,-10.24 3.27,-13.42c2.71,-3.36 6.24,-1.54 9.92,-0.92a79.63,79.63 0 0 0 15.61,0.83z"/>
  <path id="svg_16" fill="#464353" d="m125.110001,550.070002c0,1 -1.57,0 -1.71,-1.07c-1.1,-8.09 -7.52,-14.76 -15,-18s-16,-3.41 -24.1,-2.64c-12.25,1.16 -26,5.85 -30.48,17.3c-1.06,2.68 -1.54,5.58 -2.84,8.15c-1.44,2.82 -3.79,5.07 -5.35,7.81c-2.69,4.74 -2.8,10.55 -1.83,15.91c2.61,14.3 12.39,26.53 24.24,35s25.7,13.53 39.51,18.09a685.19,685.19 0 0 0 112,26.75c6.16,0.93 12.38,1.79 18.28,3.77c5.28,1.77 10.22,4.42 15.38,6.5c12,4.82 24.91,6.54 37.7,8.23c2.18,0.28 4.68,0.48 6.29,-1c2.08,-1.93 1.39,-5.29 0.8,-8.06a43.35,43.35 0 0 1 5.11,-30.76c2.14,-3.6 4.92,-7.29 4.52,-11.46c-0.48,-4.86 -5.32,-8.3 -10.14,-9.08s-9.72,0.37 -14.56,1c-1.67,0.22 -3.49,0.36 -4.95,-0.49a9.89,9.89 0 0 1 -1.94,-1.72a21.93,21.93 0 0 0 -25.54,-3.57c-1.79,1 -4.5,-1.23 -6.36,-2.07l-21.03,-9.52c-24.16,-10.93 -48.44,-21.91 -74,-28.83a15.54,15.54 0 0 1 -5.7,-2.37c-1.27,-1 -2.18,-2.36 -3.35,-3.47c-2.55,-2.41 -6.1,-3.37 -9.16,-5.08s-6.49,-5.89 -5.79,-9.32z"/>
  <path id="svg_17" fill="#3f3d56" d="m449.320001,680.760002c-3.36,6.23 -9.88,10.11 -16.88,11.71a33.5,33.5 0 0 1 -5.34,0.76c-8.85,0.55 -17.59,-1.9 -26.12,-4.32l-11.58,-3.26a36.55,36.55 0 0 0 -6.1,-1.36a41.86,41.86 0 0 0 -8.44,0.29a149.59,149.59 0 0 1 -41,-1.84a7.23,7.23 0 0 1 -3.17,-1.13a15.75,15.75 0 0 1 -2.21,-2.71c-3.15,-3.79 -6.54,-6 -2.81,-11c2.15,-2.9 6.14,-4.35 7.81,-7.68s0.6,-8.06 -0.39,-11.5c-1.35,-4.75 -5.79,-6.8 -7.38,-11.16c-1.19,-3.29 0.81,-7.11 3.82,-8.9s6.73,-1.93 10.2,-1.47s6.87,1.44 10.36,1.71c10.26,0.82 20.75,-4.47 30.6,-1.49c2.17,0.66 4.22,1.71 6.42,2.29a21.35,21.35 0 0 0 12.83,-1.11c1.44,-0.54 2.85,-1.19 4.25,-1.83a34.23,34.23 0 0 1 8.55,-3.09c9.61,-1.65 18.52,5 25.77,11.49a36.44,36.44 0 0 1 6.55,7.1c2,3.12 3.06,6.75 4,10.33c2.65,9.25 4.84,19.67 0.26,28.17z"/>
  <path id="svg_18" opacity="0.1" d="m449.320001,680.760002c-3.36,6.23 -9.88,10.11 -16.88,11.71a32.69,32.69 0 0 0 3.55,-17.16c-0.6,-9.51 -4.78,-18.47 -10.11,-26.37a93.4,93.4 0 0 0 -11.14,-13.57c-3.18,-3.2 -7.09,-5.74 -10.51,-8.67a34.23,34.23 0 0 1 8.55,-3.09c9.61,-1.65 18.52,5 25.77,11.49a36.44,36.44 0 0 1 6.55,7.1c2,3.12 3.06,6.75 4,10.33c2.61,9.31 4.8,19.73 0.22,28.23z"/>
  <path id="svg_19" fill="#ff6347" d="m82.110001,372.260002a10.35,10.35 0 0 0 -2.22,3.55a167.86,167.86 0 0 0 -14.1,57.62a5.76,5.76 0 0 1 -0.65,2.79a12.21,12.21 0 0 1 -1.47,1.59a5.52,5.52 0 0 0 0.94,8c1.65,-3.11 5.6,-4.12 9.11,-4.39c16.81,-1.33 33.23,6.49 50.09,5.9c-1.19,-4.11 -2.9,-8.06 -3.87,-12.22c-4.29,-18.47 6.41,-38.58 -0.15,-56.37c-1.31,-3.56 -3.5,-7.06 -6.95,-8.62a18.51,18.51 0 0 0 -4.45,-1.18c-4.26,-0.77 -12.74,-4.06 -16.86,-2.74c-1.52,0.49 -2.12,1.92 -3.38,2.78c-1.91,1.23 -4.45,1.68 -6.04,3.29z"/>
  <rect id="svg_20" fill="#3f3d56" rx="7.97" height="142" width="223" y="408.66" x="117.57"/>
  <circle id="svg_21" fill="#fff" r="6" cy="479.66" cx="228.57"/>
  <g id="svg_27" opacity="0.8">
   <line id="svg_28" stroke-width="3" stroke-miterlimit="10" stroke="#3f3d56" fill="none" y2="290.49" x2="955.1" y1="290.49" x1="330.04"/>
   <path id="svg_29" stroke-width="3" stroke-miterlimit="10" stroke="#3f3d56" fill="none" d="m385.570001,290.480002s29.89,4.15 14.41,-27.92s42,-26 42,-26"/>
   <path id="svg_30" stroke-width="3" stroke-miterlimit="10" stroke="#3f3d56" fill="none" d="m584.640001,290.480002s29.89,-4.14 14.41,27.93s42,26 42,26"/>
   <path id="svg_31" stroke-width="3" stroke-miterlimit="10" stroke="#3f3d56" fill="none" d="m871.270001,290.480002s-29.9,-4.14 -14.41,27.93s-42,26 -42,26"/>
   <line id="svg_32" stroke-width="3" stroke-miterlimit="10" stroke="#3f3d56" fill="none" y2="344.4" x2="649.93" y1="344.4" x1="814.86"/>
   <circle id="svg_33" fill="#ff6347" r="18.25" cy="290.49" cx="330.04"/>
   <circle id="svg_34" fill="#3acc6c" r="18.25" cy="236.3" cx="442.29"/>
   <circle id="svg_35" fill="#ff6347" r="18.25" cy="290.49" cx="442.29"/>
   <circle id="svg_36" fill="#ff6347" r="18.25" cy="290.49" cx="514.73"/>
   <circle id="svg_37" fill="#ff6584" r="18.25" cy="344.13" cx="641.35"/>
   <circle id="svg_38" fill="#ff6584" r="18.25" cy="344.13" cx="737.03"/>
   <circle id="svg_39" fill="#ff6347" r="18.25" cy="290.49" cx="732.04"/>
   <circle id="svg_40" fill="#ff6347" r="18.25" cy="290.49" cx="950.48"/>
   <circle id="svg_41" fill="#ff6347" r="18.25" cy="290.49" cx="861.12"/>
   <rect id="svg_42" fill="#ff6347" height="42.2" width="61.23" y="122.66" x="299.38"/>
   <rect id="svg_43" fill="#3acc6c" height="42.2" width="61.23" y="122.66" x="411.9"/>
   <rect id="svg_44" fill="#ff6584" height="42.2" width="61.23" y="122.66" x="610.48"/>
  </g>
  <g id="svg_45" opacity="0.1">
   <path id="svg_46" fill="#ff6347" d="m86.350001,299.360002s-74.77,-31.44 -84.57,25.29c0,0 -5.11,8.84 2,16.14c0,0 1.53,-3.92 8.75,0.13a37.17,37.17 0 0 0 8.16,3.32a18.36,18.36 0 0 0 11.62,-0.62l0,0s24.59,-1.33 45.27,-33.5c0,0 8.87,-5.48 9.31,-7.54l-14.82,1s1.14,10.85 -5,17.36c0,0 5.44,-16.84 2.83,-17.31c-0.53,-0.1 -7.83,0.86 -7.83,0.86s1.89,18.87 -8,28.63c0,0 9.18,-19.19 5.19,-28.29l-10.94,2.11s3,19.85 -7.82,31.39c0,0 8.9,-20.4 5.46,-30.76l-10.47,3.52s2.52,19.41 -6.53,29c0,0 7.9,-24.61 4.18,-28c0,0 -9.42,3.82 -11.43,6c0,0 1.49,14 -4.26,19.05c0,0 3.53,-17 1.78,-17.7c0,0 -10.94,8.24 -14.28,15.35c0,0 4.16,-10.86 12.91,-17c0,0 -7.35,-1.24 -13,1.83c0,0 3.78,-7.21 15.65,-3.79c0,0 8.79,-6.09 10.55,-6c0,0 -11.23,-5 -19.34,-4.38c0,0 8.7,-5 22.08,3.35l10.45,-3.77s-14.5,-7.43 -21.76,-7.4c0,0 9.66,-3.74 24.47,6.66l10.7,-2.18s-12,-7.35 -20.09,-9.06c0,0 9.7,-1.54 23.18,8.55l7.31,-0.61s-8.85,-5.22 -11.53,-6.49s-2.56,-2.09 -2.56,-2.09a34.89,34.89 0 0 1 17.14,8.18s15.18,-0.3 15.24,-1.23z"/>
  </g>
  <g id="svg_47" opacity="0.1">
   <path id="svg_48" fill="#ff6347" d="m83.590001,243.000002s-26.48,-61.27 -64.63,-33.17c0,0 -8.06,2.34 -8,10.7c0,0 3.14,-1.46 5.13,5.07a30.1,30.1 0 0 0 3,6.61a15,15 0 0 0 7.25,6.25l0,0s15.37,13.22 46,5.89c0,0 8.4,1.79 9.83,0.83l-9.36,-7.87s-5.51,7.1 -12.89,7.44c0,0 12.83,-6.9 11.55,-8.67c-0.26,-0.36 -5.15,-3.94 -5.15,-3.94s-9.62,12.28 -21,12.47c0,0 16.39,-6.18 19.2,-13.85l-7.7,-5s-9.71,13.51 -22.71,14.21c0,0 16.91,-7.05 20.77,-15.17l-8.23,-3.87s-9.56,13 -20.37,13.49c0,0 18.72,-10.12 18.43,-14.25c0,0 -7.77,-3.1 -10.24,-2.92c0,0 -7.07,9.15 -13.38,8.89c0,0 11.79,-8.09 11.15,-9.5c0,0 -11.2,-1.34 -17.23,1c0,0 8.66,-4.08 17.35,-2.74c0,0 -3.66,-4.93 -8.75,-6.3c0,0 6.36,-2.13 11.46,6.65c0,0 8.68,1.4 9.7,2.44c0,0 -3.81,-9.39 -9,-13.62c0,0 8,2 11.2,14.57l8.36,3.71s-4.38,-12.68 -8.72,-16.79c0,0 7.87,3.28 10.75,17.9l7.6,4.79s-2.94,-11.2 -6.77,-16.83c0,0 6.64,4.62 8.89,18.29l4.7,3.8s-2.29,-8.14 -3.16,-10.42s-0.33,-2.7 -0.33,-2.7a28.65,28.65 0 0 1 5.49,14.68s9.24,8.44 9.81,7.93z"/>
  </g>
  <line stroke-linecap="null" stroke-linejoin="null" id="svg_50" y2="174.092496" x2="52.61499" y1="80.092499" x1="89.614989" stroke-width="null" fill="#3f3d56"/>
  <path id="svg_51" d="m112.61499,99.092499c6,30 11,36 11,44" opacity="0.5" fill-opacity="null" stroke-opacity="null" stroke-width="null" stroke="null" fill="#3f3d56"/>
  <path d="m96.61499,142.092499c-1,1 -0.770248,1.026749 -1,2c-0.513741,2.176254 -2,2 -2,2c1,0 2.115868,-1.963837 3,-5c2.305542,-7.917358 2,-13 2,-18c0,-1 -0.149345,-1.525734 -1,-1c-3.80423,2.351143 -3.497551,7.925797 -4,13c-0.295616,2.985397 0,6 0,7c0,0 1.458801,0.306564 2,-1c0.382683,-0.923874 1.496223,-2.907791 2,-7c0.733101,-5.955048 -0.856506,-13.051704 -2,-16c-3.561386,-9.182404 -6,-13 -8,-15c-1,-1 -2,-2 -2,-2c-1,0 -2,0 -3,0c-1,0 -2,0 -2,0c-3,2 -7.376686,6.887321 -9,13c-1.308754,4.9282 -1.45295,10.112366 0,15c1.534485,5.161911 4.296997,9.613831 7,12c5.028992,4.439514 12.772377,6.446594 21,7c9.034973,0.607712 14.624924,-4.224319 21,-10c7.877869,-7.137177 9,-14 9,-20c0,-8 -5,-13 -8,-16c-3,-3 -8,-4 -11,-4c-7,0 -8.171631,-1.159134 -12,0c-3.450844,1.04483 -6.472305,3.472305 -11,8c-4.527695,4.527695 -8.465866,10.748512 -11,16c-3.713234,7.694931 -4.459503,12.053497 -4,14c0.513741,2.176254 1,2 2,2c0,0 2.691208,1.008636 6,-2c6.979897,-6.346725 10.982903,-17.60743 13,-33c1.169395,-8.923706 0.197075,-19.009735 0,-21c-0.502449,-5.074203 -3,-6 -4,-6c0,0 -1.513008,0.593994 -3,3c-1.662506,2.689995 -5.209106,13.964027 -7,25c-1.13266,6.979759 -1,8 -1,8l0,1" id="svg_52" fill-opacity="null" stroke-opacity="null" stroke-width="null" stroke="null" fill="none"/>
  <path id="svg_54" d="m127.058699,207.058681" opacity="0.5" stroke-opacity="null" stroke-width="null" stroke="null" fill="#000000"/>
  <path d="m135.882217,287.646851c0,-0.588226 0,-0.588226 0,-0.588226c0,-0.588226 0.363144,-1.221252 0.588242,-1.764709c0.318344,-0.768555 0.858109,-0.996124 1.176468,-1.764709c0.225098,-0.543457 0.588242,-1.176453 0.588242,-1.764679c0,0 0.363113,-0.633026 0.588226,-1.176483c0.318359,-0.768555 1.462509,-1.072815 1.764709,-2.352936c0.135147,-0.572479 0.690048,-1.089844 1.176468,-1.764709c0.769089,-1.067047 0.588226,-1.764709 0.588226,-2.352936c0,-0.588226 0.138046,-1.266022 0.588242,-2.352936c0.318359,-0.768585 0.363144,-1.809479 0.588242,-2.352936c0.318344,-0.768585 0.138016,-0.677826 0.588226,-1.764709c0.318359,-0.768555 0.138046,-1.266022 0.588242,-2.352936c0.318344,-0.768585 0.858109,-1.584381 1.176468,-2.352936c0.225113,-0.543488 0,-1.176483 0,-1.764709c0,-1.176483 0.588226,-1.764709 0.588226,-1.764709c0,-0.588226 0,-1.176483 0,-1.764709c0,-0.588226 0,-1.176483 0,-1.176483c0.588242,-1.176453 0.588242,-1.176453 0.588242,-1.764694c0,0 0.172287,-0.172272 0.588242,-0.588226c0.415955,-0.415955 0,-0.588242 0,-1.176468c0,-0.588242 0,-0.588242 0,-0.588242c0.588226,-0.588242 0.588226,-0.588242 0.588226,-0.588242c0.588242,0 1.764709,0 1.764709,-0.588226c0,0 1.176468,0 2.352936,0c2.352936,0 4.705887,0 4.705887,0c0.588226,0 1.176468,0 2.352936,0c0,0 1.176468,0 1.764694,-0.588242c0,0 0.996155,-0.269882 1.764709,-0.588226c0.543457,-0.225113 2.368668,-0.453094 2.941177,-0.588242c1.280136,-0.3022 2.233521,-0.739105 2.941177,-1.176468c1.582336,-0.977951 3.638809,-0.995621 4.705872,-1.764709c0.674866,-0.486404 1.764709,-0.588226 2.941177,-1.176468c1.176468,-0.588226 2.249252,-0.874268 3.529404,-1.176468c0.57251,-0.135147 0.996155,-0.269882 1.764709,-0.588226c0.543457,-0.225113 1.176468,0 1.764709,-0.588242c0,0 1.176468,-0.588242 2.352936,-0.588242c1.176468,0 2.941177,0 4.705887,-0.588226c0,0 1.176468,0 1.176468,0c0,0 0.588226,0 1.176468,0c0,0 0,0 0,0c0,0.588226 0.172272,0.760513 0.588226,1.176468c0.831894,0.831894 1.221237,0.363129 1.764709,0.588242c0.76857,0.318344 0.99614,0.858109 1.764709,1.176468c0.543457,0.225098 0.588226,0.588226 0.588226,0.588226c0.588242,0.588242 0.588242,0.588242 1.176468,1.176468c0,0 0.172287,-0.415955 0.588242,0c0.415955,0.415955 0.172287,0.172287 0.588242,0.588242c0.415939,0.415939 -0.415955,0.760513 0,1.176468c0.415939,0.415939 0.588226,0.588242 1.176468,0.588242c0,0 1.073181,0.057571 1.764694,1.176468c0.30925,0.500381 0.407898,0.858109 1.176468,1.176468c0.543457,0.225113 0.760529,-0.415955 1.176483,0c0.415939,0.415939 0.588226,0.588226 0.588226,0.588226c0.588242,0.588242 0.760529,0.172302 1.176468,0.588242c0.415955,0.415955 0.172287,0.172287 0.588242,0.588242c0.415939,0.415939 0,0.588226 0.588226,0.588226c0,0 0,0.588242 0,0.588242c0,0.588226 0,0.588226 0,0.588226c0,0 0,0.588242 0,0.588242c0.588242,0.588226 0.588242,0.588226 0.588242,0.588226c0.588242,0.588226 0.588242,0.588226 1.176468,0.588226c0,0 0.588242,0 1.176468,0c1.176468,0 1.764709,0 2.352936,0.588257c0,0 0,0 0,0c0.588242,0 0.588242,0 0.588242,0c0,0.588226 0,0.588226 0.588242,1.176453c0,0 0,0.588257 0.588226,1.176483c0,0 0.588242,0.588226 0.588242,0.588226c0.588226,0.588226 0.588226,1.176483 0.588226,1.176483c0.588242,0 0.588242,0.588226 0.588242,0.588226c0.588226,0.588226 0.588226,1.176483 1.176468,1.764709c0,0 0,0 0,0c0,1.176453 0,1.176453 0.588226,1.764709c0,0 0.172287,0.172272 0.588242,0.588226c0.415939,0.415924 -0.135162,0.603973 0,1.176483c0.3022,1.280121 0.588242,1.176453 0.588242,1.764679c0,0 -0.415955,0.172302 0,0.588257c0.415939,0.415924 0.588226,0.588226 0.588226,0.588226c0,0.588226 0,1.176453 0,1.176453c0.588242,0 0.588242,0.588257 0.588242,0.588257c0,0 0,0 0.588226,0.588226c0,0 0,0.588226 0,0.588226c0.588242,0 0.588242,0 0.588242,0.588257c0,0 0,0 0.588226,0.588226c0,0 0,0 0,0.588226c0,0 -0.415939,0.172302 0,0.588226c0.415955,0.415955 0.588242,0 0.588242,-0.588226c0,0 0.588242,-0.588226 0.588242,-0.588226c0,0 0.363113,-0.632996 0.588226,-1.176483c0.318359,-0.768555 0.172302,-0.760529 0.588242,-1.176453c0.415939,-0.415924 0.588226,-0.588257 0.588226,-0.588257c0,-0.588226 0,-0.588226 0,-0.588226c0,-0.588226 0,-1.176453 0,-1.176453c0,0 0,-0.588257 0,-0.588257c0,0 -0.588226,-0.588226 -0.588226,-0.588226c0,0 0,-0.588226 0,-0.588226c0,-0.588226 0,-0.588226 0,-1.176483c0,-0.588226 0.225098,-0.632996 0,-1.176453c-0.318359,-0.768585 -0.588242,-1.176483 -0.588242,-1.176483c0,-0.588226 0,-1.176453 0,-1.764709c0,-0.588226 0,-1.176453 0,-1.764709c0,0 0,-0.588226 0,-1.176453c0,-0.588226 0,-1.176483 0,-1.764709c0,-0.588226 0,-1.764709 0,-1.764709c0,-1.176468 0,-1.176468 0,-1.764694c0,0 -0.269882,-0.99614 -0.588226,-1.764709c-0.225113,-0.543472 -0.269882,-0.99614 -0.588242,-1.764709c-0.225098,-0.543457 -0.588242,-1.176468 -0.588242,-1.176468c0,-0.588226 -0.539764,-0.815811 -1.176468,-2.352936c-0.225113,-0.543457 -0.269882,-0.99614 -0.588226,-1.764709c-0.225098,-0.543457 -0.172302,-1.348755 -0.588242,-1.764694c-0.415939,-0.415939 -0.858109,-0.99614 -1.176468,-1.764709c-0.225113,-0.543457 -0.874268,-1.0728 -1.176468,-2.352936c-0.135147,-0.57251 -0.588242,-1.176483 -0.588242,-1.764709c0,-0.588242 -0.726257,-1.266022 -1.176468,-2.352936c-0.318344,-0.76857 -0.407898,-0.858124 -1.176468,-1.176468c-0.543457,-0.225098 -0.588226,-0.588242 -1.764709,-1.176483c0,0 -0.603958,-0.453079 -1.176468,-0.588226c-1.280151,-0.3022 -1.809479,-0.951355 -2.352936,-1.176468c-0.76857,-0.318359 -1.176468,-0.588226 -1.764709,-1.176468c-0.588242,-0.588242 -1.780426,-1.041336 -2.352936,-1.176483c-1.280136,-0.3022 -1.584381,-1.44635 -2.352936,-1.764694c-1.086914,-0.450211 -1.584366,-0.269882 -2.352936,-0.588242c-0.543457,-0.225113 -1.221252,-0.363113 -1.764709,-0.588226c-0.76857,-0.318359 -1.176468,-1.176468 -2.941177,-1.764709c0,0 -0.632996,-0.363129 -1.176468,-0.588242c-0.76857,-0.318344 -1.584366,-0.858109 -2.352936,-1.176468c-0.543457,-0.225113 -1.176468,-0.588226 -1.764709,-1.176468c0,0 -0.99614,-0.269882 -1.764709,-0.588226c-1.086914,-0.450211 -1.809479,-0.363129 -2.352936,-0.588242c-0.768555,-0.318344 -0.633011,-0.363113 -1.176468,-0.588226c-0.76857,-0.318359 -1.176468,-0.588242 -1.764709,-0.588242c-0.588226,0 -1.764694,0 -3.529404,0c-1.176468,0 -2.352936,0 -2.941177,0c-0.588226,0 -0.588226,0 -1.176468,0c0,0 -1.176468,0 -1.764709,0c-0.588226,0 -1.661011,0.286041 -2.941162,0.588242c-1.145004,0.270309 -1.192215,-0.135147 -1.764709,0c-1.280136,0.3022 -1.584366,0.858109 -2.352936,1.176468c-0.543457,0.225113 -1.661041,0.286026 -2.941177,0.588226c-0.57251,0.135147 -1.87413,0.407379 -2.941177,1.176468c-0.674866,0.48642 -1.764709,0.588242 -2.352936,1.176468c-0.588242,0.588242 -1.176468,0.588242 -1.176468,0.588242c-0.588242,0.588242 -0.588242,0.588242 -1.176468,0.588242c0,0 -0.588242,0.588226 -0.588242,0.588226c-0.588242,0 -0.588242,0 -1.176468,0.588242c0,0 -0.588242,0.588226 -1.764709,1.176468c0,0 0.180328,0.269882 -0.588226,0.588226c-0.543457,0.225113 -0.407913,0.858124 -1.176483,1.176468c-0.543457,0.225098 -1.176468,0.588242 -1.176468,0.588242c-0.588226,0 -1.176468,0.588242 -1.764694,1.176468c-0.588242,0.588242 -0.760529,0.760529 -1.176468,1.176468c-0.415955,0.415955 -0.588242,0.588242 -1.176483,0.588242c-0.588226,0 -0.588226,0.588226 -0.588226,0.588226c-0.588242,0 -0.588242,0.588242 -0.588242,0.588242c-0.588226,0 -0.760513,0.172287 -1.176468,0.588242c-0.415939,0.415939 0.415955,0.760513 0,1.176468c-0.415939,0.415939 -0.588226,0 -1.176468,0.588226c0,0 0,0.588242 -0.588242,0.588242c0,0 -0.363113,0.633011 -0.588226,1.176468c-0.318359,0.76857 -1.176468,0.588226 -1.176468,1.176468c0,0 0,0 0,0c-0.588242,0.588242 -0.588242,0.588242 -1.176468,1.176468c0,0 0.415955,0.172287 0,0.588242c-0.415955,0.415955 -0.172302,0.172287 -0.588242,0.588226c-0.415939,0.415939 -0.588226,0.588242 -0.588226,0.588242c0,0 -0.588242,0.588226 -1.176483,0.588226c0,0 -0.172287,0.172302 -0.588226,0.588242c-0.415955,0.415955 0,0.588226 -0.588242,1.176468c-0.588242,0.588242 -0.588226,0.588242 -0.588226,0.588242c-0.588242,0.588226 -0.588242,0.588226 -1.176468,1.176468c0,0 0,0 0,0c0,0.588226 -0.044785,0.363113 -0.588242,0.588226c-0.76857,0.318359 -0.588242,0.588242 -0.588242,1.176468c0,0.588242 0,0.588242 0,1.176483c0,0 -0.588226,0.588226 -0.588226,0.588226c0,0.588242 0,0.588242 0,1.764709c0,0 0,0.588226 -0.588242,1.176468c0,0 0,0.588242 0,0.588242c0,0.588226 0,1.176468 0,1.764694c0,0 0,0.588242 0,1.764694c0,0.588257 0,1.176483 0,1.176483c0,0.588226 -0.269882,0.996155 -0.588226,1.764709c-0.225098,0.543457 0,1.176453 0,1.764709c0,0.588226 0,1.176453 0,1.176453c0,1.176483 0,1.764709 0,1.764709c0,0.588226 0,1.176483 0,1.764709c0,0.588226 0,0.588226 0,1.176483c0,0.588226 0,0.588226 0,1.176453c0,0 -0.415955,0.760529 0,1.176483c0.415939,0.415924 0.588226,1.176453 0.588226,1.176453c0,0.588226 0,1.176483 0,1.176483c0,0.588226 0,0.588226 0,0.588226c0,0.588226 0.588242,0.588226 0.588242,0.588226c0,0 0,0.588257 0,0.588257c0,0.588226 0,0.588226 0,0.588226c0,0 0,0 0.588226,0.588226c0,0 0,0 0,0c0,0.588226 0,0.588226 0,0.588226c0,0 0.588242,0.588257 0.588242,0.588257c0,0 0,0.588226 0,0.588226c0.588242,0 0.588242,0.588226 0.588242,0.588226c0.588226,0 0.588226,0.588257 0.588226,0.588257c0.588242,0.588226 0.588242,0.588226 0.588242,1.176453c0,0 -0.415939,0.172302 0,0.588226c0.415939,0.415924 0.588226,0.588257 0.588226,0.588257c0,0.588226 0.588242,0.588226 0.588242,0.588226c0,0.588226 0.172287,0.172302 0.588226,0.588226c0.415955,0.415955 0,0.588257 0,0.588257c0,0.588226 0,1.176453 0,1.176453c0,0 0.588242,0 0.588242,0.588226c0,0 0,0 0,0l0,0.588257l0,0" id="svg_58" stroke-opacity="null" stroke-width="null" stroke="null" fill="none"/>
  <path d="m132.854553,277.423157c0.285706,0.285706 0.285706,0 0.285706,0c0,-0.571411 0,-0.571411 0,-0.857117c0,-0.285706 0,-0.571411 0,-0.571411c0,0 0,-0.285736 0,-0.285736c-0.285706,-0.285706 -0.285706,-0.285706 -0.285706,-0.571411c0,0 0,0 0,-0.285706c0,-0.285706 0,-0.857117 0,-0.857117c0,0 0,-0.285706 0,-0.285706c0,-0.285706 0,-0.571411 0,-0.571411c0,-0.285736 0,-0.285736 0,-0.285736c0.285706,-0.285706 0.285706,-0.285706 0.285706,-0.571411c0,0 0.285706,-0.285706 0.285706,-0.571411c0,-0.285706 0,-0.285706 0.285721,-0.571411c0,0 0,-0.285706 0,-0.285706c0,-0.285706 0.176376,-0.593201 0.285706,-0.857147c0.154617,-0.373291 0.285706,-0.571411 0.285706,-1.142822c0,-0.285706 0.176361,-0.59317 0.285706,-0.857117c0.154633,-0.373291 0.424652,-0.521088 0.571426,-1.142853c0.065643,-0.278076 0.416794,-0.769531 0.571411,-1.142822c0.218674,-0.527924 0.138931,-0.806763 0.285706,-1.428558c0.065643,-0.278076 0,-0.285706 0,-0.285706c0,-0.285706 0.067062,-0.900604 0.285721,-1.428528c0.30925,-0.746613 0.571411,-0.857147 0.857117,-1.428558c0,0 0.285706,-0.285706 0.285706,-0.285706c0.285721,-0.285706 0.285721,-0.857117 0.285721,-0.857117c0.285706,-0.571411 0.285706,-1.142853 0.571411,-1.714264c0.285706,-0.571411 0.369385,-0.65509 0.571411,-0.857117c0.202026,-0.202026 0.197861,-0.624573 0.571426,-1.142853c0.236252,-0.327774 0.285706,-0.28569 0.285706,-0.571411c0,-0.285706 0.083679,-0.369385 0.285706,-0.571411c0.202026,-0.202026 0.285706,-0.857132 0.571426,-1.428543c0,0 -0.109329,-0.307449 0,-0.571411c0.154617,-0.373306 0.416794,-0.483841 0.571411,-0.857132c0.109329,-0.263962 0.369385,-1.226517 0.571411,-1.428543c0.202042,-0.202042 0.220078,-0.29335 0.285721,-0.571426c0.146774,-0.621765 0.505768,-0.864761 0.571411,-1.142822c0.146774,-0.62178 0.285706,-0.571426 0.571426,-1.142838c0,0 0,-0.285706 0.285706,-0.285706c0,0 0.23555,-0.027985 0.571411,-0.571426c0.300415,-0.486069 0.176376,-0.593155 0.285706,-0.857117c0.154633,-0.373306 0.307465,-0.462097 0.571426,-0.571426c0.373291,-0.154617 0.505768,-0.579056 0.571411,-0.857117c0.146774,-0.62178 0.769547,-0.98822 1.142838,-1.142838c0.263962,-0.109329 0.579056,-0.220062 0.857132,-0.285706c0.621765,-0.14679 0.815033,-0.62088 1.142822,-0.857132c0.51828,-0.37355 0.857132,-0.285706 1.428543,-0.571426c0,0 0.293365,0.065643 0.571426,0c0.621765,-0.146774 0.838318,-0.326935 1.428543,-0.571411c0.834717,-0.345749 3.151352,-0.431763 4.285629,-0.571411c1.169189,-0.143936 2.574249,-0.490417 3.714218,-0.571426c2.015182,-0.143219 2.756378,-0.563553 3.999924,-0.857117c1.112259,-0.262558 2.578568,0.03389 3.999908,-0.285721c1.149307,-0.258438 2.489105,-0.566162 3.999924,-0.857117c0.84166,-0.162094 1.432831,0.069824 1.999969,0c1.169189,-0.143936 1.999954,-0.285706 2.571381,-0.285706c0.285706,0 0.571411,0 0.857117,-0.285721c0,0 0.285721,0 0.857132,0c1.428543,0 1.999954,0 2.571381,0c0.571411,0 1.142838,0 1.428543,0c0.285706,0 1.142838,0.285721 1.714249,0.285721c0.571411,0 1.092484,0.138931 1.714249,0.285706c0.556137,0.131287 1.714264,0.285706 2.857086,0.285706c1.999969,0 2.235321,0.138931 2.857086,0.285706c0.834198,0.19693 1.714264,0 2.571381,0c0.571426,0 0.571426,0 0.857132,0c0.285706,0 0.5867,0.154419 1.142838,0.285706c0.621765,0.14679 0.90062,0.067047 1.428543,0.285721c0.373291,0.154617 0.769531,0.416794 1.142838,0.571411c0.263962,0.109329 0.857117,0.285706 0.857117,0.285706c0.285706,0.285706 0.536728,0.426697 1.428543,0.571426c0.282013,0.045761 1.142838,0.571411 1.428543,0.571411c0,0 0,0 0.285706,0.285706c0,0 0.571426,0.285706 0.857132,0.571426c0.285706,0.285706 0.243637,0.335159 0.571426,0.571411c0.51828,0.373535 0.599365,0.521255 1.142822,0.857132c0.243042,0.150208 0.899796,0.135498 1.142838,0.285706c0.543442,0.335861 0.571426,0.571411 1.142838,1.142838c0.571411,0.571411 1.142822,0.857117 1.714249,1.428543c0.571426,0.571426 0.857132,0.857117 1.142838,1.142838c0.285706,0.285706 0.416794,0.19812 0.571411,0.571411c0.109329,0.263962 0.612656,0.838318 0.857132,1.428543c0.345749,0.834717 0.857132,1.142838 1.428543,1.999969c0,0 0.571426,0.571411 0.857132,1.142822c0,0 0.505768,0.293365 0.571411,0.571426c0.146774,0.621765 0.197861,0.624557 0.571426,1.142838c0.236252,0.327774 0.328369,0.421204 0.571411,0.571411c0.543442,0.335861 0.285706,0.571411 0.571411,0.857132c0,0 0,0.28569 0,0.28569c0.285721,0.285736 0.335175,0.243652 0.571426,0.571442c0.37355,0.51828 0.369385,0.65509 0.571411,0.857117c0.202026,0.202026 0.285706,0.285706 0.285706,0.571411c0,0 0,0.285706 0.285721,0.571411c0.285706,0.285706 0.571411,0.571442 0.571411,0.571442c0,0.285706 0.285706,0.285706 0.285706,0.285706c0,0.285706 0.176361,0.307465 0.285706,0.571411c0.154633,0.373291 0.083694,0.369385 0.285721,0.571411c0.202026,0.202026 0.285706,0.285706 0.285706,0.285706c0,0 0.285706,0.285706 0.285706,0.285706c0.285706,0.285706 0.285706,0.571411 0.285706,0.571411c0.285721,0.285736 0.571426,0.285736 0.571426,0.285736c0,0.285706 0.285706,0.285706 0.571411,0.571411c0,0 0,0.285706 0.285706,0.285706c0,0 0.285721,0.285706 0.285721,0.285706c0.285706,0 0.285706,0.285706 0.285706,0.285706c0.285706,0 0.285706,0.285706 0.285706,0.285706c0,0 0,0 0.285706,0c0,0 0,0 0.285706,0.285706c0,0 0,0 0.285721,0c0,0 0.083679,0.202026 0.285706,0c0.202026,-0.202026 0,-0.285706 0,-0.571411c0,0 0.220062,-0.293335 0.285706,-0.571411c0.146774,-0.621765 0.285706,-0.857117 0.285706,-1.142853c0,-0.285706 0.285706,-0.571411 0.285706,-0.857117c0,-0.285706 0,-0.285706 0,-0.285706c0,0 0,-0.285706 0,-0.571411c0,0 -0.083679,-0.083679 -0.285706,-0.285706c-0.202026,-0.202026 0,-0.285706 0,-0.571411c0,0 -0.285706,-0.285736 -0.285706,-0.285736c0,-0.285706 0.065643,-0.293335 0,-0.571411c-0.146774,-0.621765 -0.176376,-0.59317 -0.285706,-0.857117c-0.154617,-0.373291 -0.416794,-0.19812 -0.571426,-0.571411c-0.109344,-0.263947 0,-0.285706 0,-0.285706c-0.285706,-0.285706 -0.176361,-0.307465 -0.285706,-0.571442c-0.154617,-0.373276 -0.176376,-0.593155 -0.285706,-0.857117c-0.154617,-0.373291 -0.083679,-0.369385 -0.285706,-0.571411c-0.202026,-0.202026 -0.416794,-0.19812 -0.571426,-0.571426c-0.109329,-0.263962 0,-0.571411 0,-0.571411c-0.285706,-0.285706 -0.285706,-0.571411 -0.571411,-0.857132c-0.285706,-0.285706 -0.369385,-0.369385 -0.571411,-0.571411c-0.202026,-0.202026 -0.285721,-0.571411 -0.285721,-0.857132c0,-0.285706 0.034958,-0.590271 -0.285706,-1.142838c-0.517044,-0.890976 -0.571411,-1.428543 -0.571411,-1.714249c0,-0.571411 0,-1.142838 0,-1.428543c0,-0.285706 0.109329,-0.593155 0,-0.857117c-0.154633,-0.373306 -0.176392,-0.307465 -0.285721,-0.571426c-0.154617,-0.373291 -0.571411,-0.857117 -0.571411,-0.857117c0,-0.285721 0.109329,-0.59317 0,-0.857132c-0.154617,-0.373291 -0.285706,-0.571411 -0.285706,-0.857132c0,0 -0.285706,-0.285706 -0.285706,-0.285706c0,-0.285706 0,-0.285706 -0.285721,-0.571411c0,0 -0.285706,-0.285721 -0.285706,-0.285721c-0.285706,-0.285706 -0.369385,-0.369385 -0.571411,-0.571411c-0.202026,-0.202026 -0.285706,-0.285706 -0.285706,-0.285706c-0.285721,0 -0.3694,-0.083679 -0.571426,-0.285706c-0.202026,-0.202026 -0.285706,0 -0.285706,0c-0.285706,0 -0.483826,-0.131088 -0.857132,-0.285721c-0.263962,-0.109329 -0.571411,-0.285706 -0.571411,-0.285706c-0.285706,0 -0.369385,-0.083679 -0.571411,-0.285706c-0.202042,-0.202042 -0.285721,0 -0.571426,0c0,0 -0.593155,-0.176376 -0.857117,-0.285706c-0.373306,-0.154617 -0.878876,-0.462097 -1.142838,-0.571426c-0.373306,-0.154617 -0.59317,-0.176376 -0.857132,-0.285706c-0.373291,-0.154617 -0.593155,-0.462067 -0.857132,-0.571411c-0.373291,-0.154617 -0.579056,-0.505783 -0.857117,-0.571426c-0.62178,-0.146774 -0.579071,-0.505768 -0.857132,-0.571411c-0.621765,-0.146774 -0.772964,-0.670319 -1.428543,-1.142838c-0.518265,-0.37355 -0.976791,-0.691086 -1.428543,-1.142838c-0.451736,-0.451736 -1.481674,-1.340714 -1.999954,-1.714249c-0.327789,-0.236252 -0.571426,-0.857132 -0.857132,-1.142838c-0.285706,-0.285706 -0.571411,-0.857117 -0.857132,-1.142838c-0.285706,-0.285706 -0.571411,-0.571411 -0.857117,-0.857117c-0.285706,-0.285706 -0.571426,-1.142838 -0.857132,-1.428543c-0.285706,-0.285706 -0.462082,-0.59317 -0.571411,-0.857132c-0.154617,-0.373291 -0.083679,-0.369385 -0.285706,-0.571411c-0.202042,-0.202042 -0.285721,0 -0.571426,-0.285706c0,0 -0.300995,0.131287 -0.857117,0c-0.62178,-0.14679 -0.864777,-0.220078 -1.142838,-0.285721c-0.62178,-0.146774 -0.857132,-0.285706 -1.142838,-0.285706c-0.285706,0 -0.571426,0 -1.142838,0c-0.571411,0 -1.142838,0 -1.428543,0c0,0 -0.285706,0 -0.571411,0c-0.571426,0 -2.235321,-0.424637 -2.857086,-0.571411c-0.556137,-0.131287 -0.857132,0 -1.142838,0c0,0 -0.285706,0 -0.571426,0c-0.285706,0 -0.593826,0.060059 -1.428543,-0.285706c-0.590225,-0.244492 -0.87886,-0.176376 -1.142838,-0.285721c-0.373291,-0.154617 -1.142822,-0.571411 -1.428543,-0.571411c-0.857117,0 -1.055237,-0.416794 -1.428543,-0.571426c-0.263962,-0.109329 -0.857117,-0.285706 -0.857117,-0.285706c-0.285706,0 -0.806778,-0.138931 -1.428543,-0.285706c-0.556137,-0.131287 -0.857132,0 -1.142838,0c-0.285706,0 -0.5867,0.131287 -1.142838,0c-0.621765,-0.146774 -1.092484,-0.424637 -1.714249,-0.571411c-0.556137,-0.131287 -0.857132,0 -1.428543,0c0,0 -0.857132,0 -1.142838,0c-0.285706,0 -0.285706,0 -0.571411,0c0,0 0,0 -0.285721,0c0,0 -0.285706,0 -0.285706,0c-0.285706,0 -0.65509,0.083679 -0.857117,0.285706c-0.202042,0.202042 -0.483841,0.131088 -0.857132,0.285706c-0.527908,0.218674 -0.900635,-0.218674 -1.428543,0c-0.373291,0.154617 -0.285706,0.285706 -0.571426,0.285706c-0.285706,0 -0.521057,0.138931 -1.142822,0.285706c-0.278076,0.065643 -0.738785,-0.404053 -1.142838,0c-0.202042,0.202042 -0.285706,0.285721 -0.285706,0.285721c-0.285721,0.285706 -0.769547,0.416794 -1.142838,0.571411c-0.263962,0.109329 -0.571426,0.285706 -0.571426,0.285706c0,0.285721 -0.285706,0.285721 -0.571411,0.571426c0,0 -0.285706,0 -0.857132,0.285706c0,0 -0.235352,0.424637 -0.857117,0.571411c-0.278061,0.065643 -0.369385,0.083679 -0.571426,0.285721c-0.202026,0.202026 -0.571411,0 -0.571411,0c-0.571426,0.285706 -0.702515,0.19812 -0.857132,0.571411c-0.109329,0.263962 -0.235352,0.424637 -0.857117,0.571411c-0.278076,0.065643 -0.571426,0.285721 -0.857132,0.285721c0,0 -0.285706,0.285706 -0.285706,0.285706c-0.285706,0 -0.19812,0.131088 -0.571426,0.285706c-0.263962,0.109329 -0.369385,0.083679 -0.571411,0.285706c-0.202026,0.202026 -0.571411,0 -0.857132,0c0,0 -0.285706,0.285706 -0.571411,0.285706c-0.285706,0 -0.483826,0.131088 -0.857132,0.285721c-0.263962,0.109329 -0.579056,0.220062 -0.857117,0.285706c-0.62178,0.146774 -0.878876,0.462082 -1.142838,0.571411c-0.746597,0.30925 -0.857132,0.857132 -1.142838,1.142838c-0.285706,0.285706 -0.571411,0.285706 -0.857132,0.571411c0,0 -0.307449,0.176392 -0.571411,0.285721c-0.373291,0.154617 -0.416794,0.19812 -0.571411,0.571411c-0.109329,0.263962 -0.135513,0.328384 -0.285721,0.571426c-0.335861,0.543442 -0.593155,0.462082 -0.857117,0.571411c-0.373291,0.154617 -0.3694,0.369385 -0.571426,0.571411c-0.404053,0.404053 -0.747787,0.307465 -0.857117,0.571426c-2.937866,7.092636 -5.714172,5.428467 -5.999893,5.999878c0,0 -0.176376,0.307449 -0.285706,0.571411c-0.154617,0.373306 -0.416794,0.198135 -0.571411,0.571426c-0.109329,0.263962 -0.521255,0.59938 -0.857132,1.142838c-0.150208,0.243042 -0.285706,0.571411 -0.285706,0.857117c0,0.285721 0,0.571426 -0.285706,0.857132c-0.285706,0.285706 -0.416794,0.483826 -0.571426,0.857132c-0.218674,0.527908 -0.285706,0.857117 -0.285706,1.142822c0,0 -0.131088,0.198135 -0.285706,0.571426c-0.109329,0.263962 -0.424637,0.521057 -0.571411,1.142838c-0.065643,0.278061 -0.285721,0.571411 -0.285721,0.857117c0,0 0,0.285706 -0.285706,0.571426c0,0 -0.285706,0.571411 -0.285706,0.571411c0,0.285706 0,0.285706 0,0.571426c0,0 -0.285706,0.285706 -0.285706,0.285706c0,0.285706 0.202026,0.369385 0,0.571411c-0.202026,0.202026 -0.285706,0.285706 -0.285706,0.571426c0,0.571411 0,0.571411 0,0.571411c0,0.285706 -0.285721,0.571411 -0.285721,0.857132c0,0.285706 -0.285706,0.857117 -0.285706,1.428543c0,0 0,0 0,0.28569c0,0.571442 -0.285706,0.857147 -0.285706,1.142853c0,0.285706 0,0.571411 0,0.571411c-0.285706,0.285706 -0.197861,0.910248 -0.571426,1.428558c-0.236252,0.327789 -0.285706,0.285706 -0.285706,0.571411c0,0 0,0.285706 0,0.285706c0,0.285706 0,0.285706 0,0.571411c0,0.285706 0,0.571411 0,0.857117c0,0.285706 0,0.571442 0,0.571442c0,0.285706 0,0.285706 0,0.285706c0,0.285706 -0.285706,0.571411 -0.285706,0.857117c0,0 0,0.285706 0,0.285706c0,0.285706 0,0.571411 0,0.571411c-0.285706,0.285706 -0.285706,0.571442 -0.285706,0.857147c0,0 0,0 0,0.571411c0,0 0,0.285706 0,0.571411c0,0 0,0.285706 0,0.285706c0,0 0,0 0,0.285706c0,0 0,0.285706 0,0.285706c0,0.285706 0,0.285706 0,0.285706c0,0.285736 0,0.571442 0,0.857147c0,0 0,0.285706 0,0.571411c0,0 0,0.285706 0,0.285706c0,0 0,0.285706 0,0.285706c0,0.285706 0,0.285706 0,0.571411c0,0.285706 0,0.571442 0,0.571442c0,0 0,0.285706 0,0.571411c0,0 0.285706,0 0.285706,0.285706c0,0 0,0.285706 0,0.285706c0,0 0,0.285706 0,0.285706c0,0.285706 0.285706,0.857117 0.285706,0.857117c0,0 0,0.285736 0,0.285736c0,0 0,0.285706 0,0.571411c0,0 0,0.285706 0,0.285706c0,0.285706 0,0.285706 0,0.571411c0,0.285706 0,0.571411 0,0.571411c0,0.285706 0,0.285706 0,0.285706c0,0.285706 0,0.285706 0,0.285706c0,0.285736 0,0.285736 0,0.285736c0,0.285706 0,0.571411 0,0.857117c0,0 0,0.285706 0,0.285706l0,0.285706l0,0" id="svg_59" stroke-opacity="null" stroke-width="null" stroke="null" fill="none"/>
  <path stroke="null" d="m132.90303,273.763123c0,0 0,-0.215057 0,-0.215057c0,-0.215057 0,-0.215057 0,-0.430115c0,-0.215057 0,-0.430084 0,-0.860199c0,-0.215057 0,-0.430115 0,-0.645172c0,-0.215057 0,-0.430115 0,-0.645142c0,-0.215057 0,-0.430115 0,-0.645172c0,-0.215057 0,-0.430115 0,-0.645172c0,-0.215057 0,-0.430084 0,-0.430084c0,-0.215057 0,-0.430115 0,-0.430115c0,-0.215057 0,-0.430115 0,-0.645172c0,-0.215057 0,-0.430115 0,-0.645142c0,-0.430115 0.10585,-0.607269 0.217693,-1.075287c0.100027,-0.41861 0.217693,-0.860199 0.435386,-1.075256c0.217677,-0.215057 0.31755,-0.364197 0.43537,-0.645172c0.083315,-0.1987 0.217693,-0.215057 0.217693,-0.430115c0,-0.215027 0.134394,-0.231384 0.217693,-0.430084c0.117805,-0.280975 0.43537,-0.430115 0.43537,-0.645172c0,0 0.06376,-0.062988 0.217693,-0.215057c0.153933,-0.152069 0,-0.215057 0.217693,-0.430084c0,0 0.016573,-0.347809 0.217677,-0.430115c0.284434,-0.116394 0.317565,-0.579254 0.435386,-0.860229c0.083315,-0.1987 0.217677,-0.430084 0.217677,-0.645142c0,-0.215057 0.217693,-0.430115 0.217693,-0.645172c0,-0.215057 0.099872,-0.364197 0.217693,-0.645172c0.083299,-0.198669 0.10585,-0.392181 0.217693,-0.860199c0.050013,-0.20929 0.217677,-0.430115 0.43537,-1.075256c0,0 0,-0.215057 0,-0.215057c0,-0.215057 0.10585,-0.607269 0.217693,-1.075287c0.250067,-1.046494 0.33712,-1.670944 0.653063,-2.580627c0.360242,-1.037216 0.541236,-1.467484 0.653063,-1.935486c0.050013,-0.209305 0.167679,-0.650909 0.217693,-0.860214c0.111843,-0.468018 0.317565,-0.579224 0.435386,-0.860214c0.083315,-0.198685 -0.083315,-0.23143 0,-0.430115c0.117805,-0.28096 0.352056,-0.446472 0.43537,-0.645157c0.11782,-0.280991 0.368444,-0.470108 0.653063,-0.860214c0.180005,-0.246735 0.368459,-0.470093 0.653079,-0.860214c0.180005,-0.246719 0.217677,-0.430099 0.653063,-0.860214c0,0 0.217693,-0.215057 0.43537,-0.430099c0.217693,-0.215057 0.435386,-0.430099 0.653079,-0.645157c0.217693,-0.215057 0.475869,-0.363998 0.870756,-0.645172c0.499486,-0.355652 1.088434,-0.860199 1.741512,-1.075256c0.653063,-0.215042 1.123109,-0.561432 1.741512,-0.860214c0.705085,-0.340668 1.0741,-0.676193 1.523819,-0.860214c0.635996,-0.260239 1.088449,-0.430115 1.959205,-0.860214c0.870756,-0.430115 1.789997,-0.800858 2.612268,-1.505386c0.465134,-0.398529 1.088434,-0.860199 1.523819,-1.075256c0.43537,-0.215042 0.870756,-0.215057 1.088434,-0.430115c0.217693,-0.215057 0.669652,-0.562866 0.870756,-0.645157c0.284434,-0.116394 0.217693,-0.215057 0.435386,-0.215057c0.217693,0 0.217693,-0.215057 0.217693,-0.215057c0.217677,0 0.436436,0.021194 0.653063,0c1.104605,-0.108047 1.703145,-0.319611 2.176883,-0.430099c0.847464,-0.197647 1.279699,-0.321182 1.959205,-0.430115c0.429764,-0.068893 0.653063,-0.215042 1.088449,-0.430099c0.43537,-0.215057 0.586322,-0.313721 0.870756,-0.430115c0.20112,-0.082306 0.451944,-0.132736 0.653063,-0.215042c0.284434,-0.116394 0.475869,-0.148941 0.870756,-0.430115c0.249758,-0.177841 0.441209,-0.165649 0.653063,-0.215057c0.473753,-0.110474 0.876579,-0.165634 1.088449,-0.215042c0.473753,-0.110489 0.68621,-0.050461 1.088449,-0.215057c0.284434,-0.116394 0.43537,-0.215057 0.653063,-0.215057c0.653063,0 0.870756,0 1.306142,0c0.217677,0 0.653063,-0.215057 1.088434,-0.215057c0.435386,0 0.653063,-0.215042 1.088449,-0.215042c0.217693,0 0.586322,-0.098663 0.870756,-0.215057c0.20112,-0.082306 0.669637,0.082306 0.870756,0c0.284434,-0.116394 0.43537,-0.215057 0.653063,-0.215057c0.217693,0 0.435386,0 0.653063,0c0.435386,0 0.870756,0 1.306142,0c0.870756,0 1.523819,0 2.394575,0c0.653063,0 1.322715,0.082291 1.523819,0c0.284434,-0.116394 0.217693,-0.215057 0.435386,-0.215057c0.217693,0 0.43537,0 0.870756,0c0.217693,0 0.870756,0 1.306126,0c0.217693,0 0.653079,0 1.088449,0c0.435386,0 0.870756,0 1.306142,0c0.653063,0 1.306126,0 1.741512,0c0.653063,0 0.903903,-0.164597 1.306126,0c0.284434,0.116394 0.43537,0.215057 0.653063,0.215057c0.217693,0 0.435386,0.215057 0.653063,0.215057c0.870756,0 1.306142,0.215057 1.959205,0.215057c0.435386,0 0.653063,0 0.870756,0c0.217693,0 0.447032,0.116226 0.870756,0.215042c0.473753,0.110489 1.063411,0.274048 1.523819,0.430115c1.049927,0.355881 1.758595,0.169846 2.394591,0.430099c0.449704,0.184021 0.870756,0.430115 1.306126,0.645172c0.870756,0.430115 1.152209,0.493088 1.306142,0.645157c0.153933,0.152069 0.217677,0.430099 0.43537,0.430099c0.217693,0 0.217693,0.215057 0.435386,0.215057c0,0 0.06376,0.063004 0.217677,0.215057c0.153933,0.152069 0.217693,0.215057 0.435386,0.430099c0.217693,0.215057 0.281438,0.493103 0.43537,0.645172c0.153933,0.152069 0.435386,0.215042 0.435386,0.215042c0.217693,0 0.451944,0.132751 0.653063,0.215057c0.284434,0.116394 0.435386,0.430115 0.653063,0.430115c0.217693,0 0.234266,0.132736 0.435386,0.215042c0.284434,0.116394 0.43537,0.215057 0.43537,0.215057c0.217693,0 0.217693,0 0.217693,0c0.217693,0 0.217693,0.215057 0.435386,0.215057c0,0 0.217677,0 0.43537,0.215057c0.217693,0.215042 0.435386,0.215042 0.653063,0.430099c0,0 0.234266,0.132751 0.435386,0.215057c0.284419,0.116394 0.385357,0.435852 0.43537,0.645157c0.111843,0.468018 0.43537,0.645157 0.653063,1.075272c0.217677,0.430099 0.526562,0.520187 0.870756,0.860214c0.344194,0.340027 0.435386,0.430099 0.653079,0.645157c0.217677,0.215057 0.43537,0.430115 0.653063,0.645157c0.217693,0.215057 0.880101,0.797897 1.088449,0.860214c0.751206,0.224701 1.088434,0.645172 1.306126,0.860214c0.217693,0.215057 0.435386,0.430115 0.435386,0.430115c0.217677,0.215042 0.217677,0.215042 0.43537,0.430099c0.217693,0.215057 0.317565,0.364182 0.435386,0.645157c0.083315,0.198685 0.103224,0.247177 0.217677,0.430115c0.255906,0.409058 0.394593,0.474579 0.870756,0.860214c0.606988,0.491592 0.870756,0.860214 1.088449,1.075272c0.217693,0.215042 0.535258,0.364182 0.653063,0.645157c0.083299,0.198685 0.217693,0.430099 0.217693,0.645157c0,0 0.217693,0.215057 0.217693,0.215057c0.217693,0.215057 0.281453,0.278046 0.43537,0.430099c0.153933,0.152069 -0.083315,0.23143 0,0.430115c0.11782,0.280991 0.317565,0.149124 0.435386,0.430099c0.083315,0.198685 0.217693,0.430115 0.217693,0.430115c0,0.215057 0.217677,0.215057 0.217677,0.215057c0,0.215042 0,0.215042 0,0.215042c0.217693,0 0.217693,0 0.217693,0c0,0.215057 0.217693,0.215057 0.217693,0.215057c0,0 0.217693,0.215057 0.217693,0.215057c0,0 0.06376,-0.152054 0.217677,0c0.153933,0.152069 0,0.215057 0,0.215057c0,0 0.217693,0 0.217693,0.215042c0,0 0.06376,0.062988 0.217693,0.215057c0.153933,0.152069 0,0.215057 0.217693,0.430115c0,0 0.06376,-0.152054 0.217677,0c0.153917,0.152054 0,0.215042 0,0.215042c0.217693,0.215057 0.217693,0.215057 0.217693,0.215057c0,0.215057 0,0.215057 0,0.215057c0,0 0.217693,0 0.217693,0c0,0.215057 0,0.215057 0.217693,0.215057c0,0 0,0 0.217677,0.215042c0,0 0,0 0.217693,0c0,0 0,0 0,0c0,-0.215042 0,-0.215042 0,-0.215042c0,-0.215057 0,-0.215057 0,-0.215057c0,-0.215057 0,-0.215057 0,-0.215057c0,-0.215057 0,-0.215057 0,-0.215057c0,-0.215042 0,-0.215042 0,-0.215042c0,-0.215057 0,-0.215057 0,-0.215057c0,-0.215057 0,-0.215057 0,-0.215057c0,-0.215057 0,-0.215057 0,-0.430099c0,-0.215057 0,-0.430115 0,-0.430115c0,-0.215057 0,-0.430099 0,-0.430099c0,-0.215057 0,-0.215057 0,-0.215057c0,-0.215057 0,-0.215057 0,-0.430115c0,0 0,-0.215042 0,-0.430099c0,0 -0.134378,-0.23143 -0.217693,-0.430115c-0.117805,-0.28096 -0.385357,-0.435852 -0.43537,-0.645157c-0.111843,-0.468002 -0.43537,-0.645157 -0.653063,-1.075272c-0.217677,-0.430099 -0.317565,-0.579224 -0.435386,-0.860214c-0.083299,-0.198669 -0.217693,-0.215042 -0.217693,-0.215042c0,-0.215057 -0.10585,-0.177155 -0.217677,-0.645172c-0.050013,-0.20929 0,-0.215042 -0.217693,-0.430099c0,0 -0.217693,-0.215057 -0.217693,-0.215057c0,-0.215057 -0.217693,-0.215057 -0.217693,-0.215057c0,0 0,0 -0.217677,-0.215042c0,0 0,-0.215057 -0.217693,-0.215057c0,0 -0.06376,-0.062988 -0.217693,-0.215057c-0.153933,-0.152069 -0.099872,-0.149124 -0.217693,-0.430099c-0.083315,-0.198685 0,-0.215057 -0.217677,-0.215057c0,0 0,-0.215057 0,-0.215057c-0.217693,-0.215042 -0.535258,-0.149109 -0.653079,-0.430099c-0.083315,-0.198685 -0.217677,-0.430115 -0.217677,-0.430115c0,-0.215042 -0.06376,-0.27803 -0.217693,-0.430099c-0.153933,-0.152069 -0.317565,-0.149124 -0.435386,-0.430115c-0.083299,-0.198669 -0.217677,-0.215042 -0.217677,-0.430099c0,-0.215057 -0.134394,-0.446487 -0.217693,-0.645157c-0.11782,-0.280991 -0.385372,-0.650925 -0.435386,-0.860214c-0.111827,-0.468018 -0.542796,-0.619049 -0.653063,-1.290329c-0.069738,-0.424545 -0.317565,-0.579239 -0.43537,-0.860214c-0.166598,-0.397369 -0.150751,-0.685165 -0.435386,-1.075272c-0.180005,-0.246719 -0.43537,-0.430099 -0.653063,-0.860214c-0.217693,-0.430099 -0.255381,-0.61348 -0.435386,-0.860214c-0.284604,-0.390091 -0.473043,-0.61348 -0.653063,-0.860214c-0.284619,-0.390106 -0.43537,-0.645157 -0.653063,-0.860214c-0.217693,-0.215042 -0.435386,-0.430099 -0.653063,-0.645157c-0.217693,-0.215057 -0.217693,-0.645157 -0.435386,-0.860214c-0.217693,-0.215057 -0.352056,-0.446472 -0.43537,-0.645157c-0.11782,-0.280991 -0.134378,-0.23143 -0.217693,-0.430115c-0.11782,-0.280975 -0.317565,-0.149109 -0.435386,-0.430099c-0.083315,-0.198685 -0.217677,-0.430115 -0.43537,-0.645157c-0.217693,-0.215057 -0.217693,-0.215057 -0.217693,-0.215057c0,-0.215057 -0.350604,-0.679413 -0.653063,-1.290329c-0.344843,-0.696533 -0.690751,-0.828537 -0.870756,-1.075256c-0.284635,-0.390106 -0.217693,-0.645157 -0.43537,-0.860214c-0.217693,-0.215057 -0.255381,-0.398438 -0.435386,-0.645157c-0.284635,-0.390106 -0.352071,-0.661545 -0.43537,-0.860214c-0.11782,-0.280991 -0.535258,-0.364182 -0.653079,-0.645172c-0.166614,-0.397354 -0.31755,-0.579224 -0.43537,-0.860214c-0.083299,-0.198669 -0.051064,-0.462845 -0.217693,-0.860214c-0.11782,-0.280975 -0.535243,-0.364166 -0.653063,-0.645157c-0.083315,-0.198685 -0.317565,-0.579224 -0.435386,-0.860214c-0.083315,-0.198685 -0.31755,-0.149124 -0.43537,-0.430099c-0.083315,-0.198685 -0.217693,-0.430115 -0.217693,-0.430115c-0.217693,-0.215057 -0.43537,-0.430099 -0.653063,-0.645157c-0.217693,-0.215057 -0.535258,-0.364197 -0.653063,-0.645157c-0.083315,-0.198685 -0.217693,-0.430115 -0.435386,-0.645172c-0.217693,-0.215042 -0.43537,-0.645157 -0.43537,-0.645157c-0.217693,-0.215057 -0.473073,-0.398422 -0.653079,-0.645157c-0.284619,-0.390106 -0.535243,-0.579224 -0.653063,-0.860214c-0.083315,-0.198685 -0.217693,-0.645157 -0.43537,-0.860214c-0.217693,-0.215057 -0.499146,-0.493088 -0.653079,-0.645157c-0.153933,-0.152069 -0.217677,-0.430115 -0.43537,-0.645172c0,0 -0.352087,-0.231415 -0.435386,-0.430099c-0.117805,-0.280975 -0.43537,-0.215057 -0.653063,-0.430115c-0.217693,-0.215042 -0.451944,-0.347794 -0.653063,-0.430099c-0.284434,-0.116394 -0.368645,-0.313721 -0.653063,-0.430115c-0.402239,-0.164612 -0.586353,-0.098663 -0.870756,-0.215042c-0.402239,-0.164597 -0.614711,-0.104568 -1.088449,-0.215057c-0.21187,-0.049408 -0.368645,-0.098663 -0.653063,-0.215057c-0.20112,-0.082306 -0.435386,0 -0.653079,0c0,0 -0.217677,0 -0.43537,0c0,0 -0.217693,0 -0.217693,0c-0.217693,0 -0.43537,0 -0.43537,0c-0.217693,0 -0.217693,0 -0.435386,0c0,0 -0.217693,0 -0.217693,0c-0.217677,0 -0.43537,0 -0.43537,0c-0.217693,0 -0.217693,0 -0.217693,0c-0.217693,0 -0.217693,0 -0.217693,0c-0.217677,0 -0.217677,0.215057 -0.217677,0.215057c-0.217693,0.215057 -0.217693,0.430099 -0.435386,0.645157c0,0 -0.281438,0.062988 -0.43537,0.215057c-0.153933,0.152069 -0.134394,0.23143 -0.217693,0.430099c-0.11782,0.280991 -0.281438,0.278046 -0.43537,0.430115c-0.153933,0.152069 -0.435386,0.215057 -0.435386,0.215057c-0.217693,0.215042 -0.468517,0.265503 -0.870756,0.430099c-0.284434,0.116394 -0.658886,0.380707 -0.870756,0.430115c-0.473738,0.110474 -0.804015,0.528763 -1.088449,0.645157c-0.201104,0.082291 -0.669637,0.347794 -0.870756,0.430099c-0.284419,0.116394 -0.403305,0.467346 -0.653063,0.645172c-0.394871,0.281158 -0.667428,0.618851 -1.088449,0.860214c-0.678858,0.389175 -1.088434,0.860199 -1.523819,1.075256c-0.43537,0.215042 -1.021708,0.528778 -1.306126,0.645172c-0.402239,0.164612 -0.435386,0.215042 -0.653079,0.215042c-0.217677,0 -0.670532,0.148224 -1.306126,0c-0.473753,-0.110474 -1.094071,-0.146149 -1.523819,-0.215042c-0.679522,-0.108932 -1.088449,-0.215057 -1.523835,-0.215057c-0.43537,0 -0.68621,0.164597 -1.088434,0c-0.284434,-0.116394 -0.435386,-0.215057 -0.653079,-0.215057c-0.217677,0 -0.217677,0 -0.43537,0c-0.217693,0 -0.217693,0 -0.43537,0c-0.217693,0 -0.435386,0 -0.435386,0c-0.217693,0 -0.499131,0.062988 -0.653063,0.215057c-0.153933,0.152069 -0.499146,0.063004 -0.653063,0.215057c-0.153917,0.152054 -0.150952,0.313705 -0.435386,0.430099c-0.20112,0.082306 -0.368629,0.098663 -0.653063,0.215057c-0.20112,0.082306 -0.658886,0.165649 -0.870756,0.215057c-0.473753,0.110474 -0.664709,0.331284 -1.088449,0.430099c-0.473738,0.110489 -1.306126,0.645157 -1.306126,0.645157c-0.435386,0.215057 -0.435386,0.215057 -0.870756,0.430115c-0.435386,0.215057 -0.832389,0.319626 -1.306142,0.430099c-0.423724,0.098816 -0.653063,0 -1.088449,0.215057c-0.43537,0.215057 -0.903903,0.050461 -1.306126,0.215057c-0.284434,0.116394 -0.903903,0.050461 -1.306142,0.215057c-0.284403,0.116379 -0.653063,0.215042 -0.870756,0.215042c-0.43537,0 -0.608873,0.270218 -0.870756,0.430115c-0.585581,0.357529 -0.653063,0.215042 -0.870756,0.430099c-0.217693,0.215057 -0.653063,0.430115 -0.870756,0.645172c0,0 -0.217677,0.215042 -0.43537,0.430099c-0.217693,0.215057 -0.352087,0.446487 -0.435386,0.645157c-0.117805,0.280975 -0.586152,0.470108 -0.870756,0.860214c-0.180005,0.246719 -0.43537,0.645172 -0.43537,0.645172c-0.217693,0.215042 -0.43537,0.430099 -0.653063,0.645157c-0.217693,0.215042 -0.475869,0.363983 -0.870756,0.645157c-0.249758,0.177841 -0.456686,0.607407 -0.870756,0.860214c-0.18518,0.113068 -0.435386,0.215057 -0.653063,0.430099c0,0 -0.229339,-0.098816 -0.653079,0c-1.421228,0.331451 -1.95919,1.075272 -2.394575,1.290329c-0.43537,0.215057 -0.693562,0.579025 -1.088449,0.860214c-0.249743,0.177826 -0.693547,0.363983 -1.088434,0.645157c-0.499501,0.355667 -0.456701,0.607407 -0.870756,0.860214c-0.18518,0.113068 -0.435386,0 -0.653079,0.215057c0,0 -0.063745,0.062988 -0.217677,0.215057c-0.153933,0.152069 -0.435386,0.215042 -0.653079,0.215042c0,0 0,0.215057 -0.217677,0.215057c0,0 0,0 0,0.215057c0,0 -0.06376,0.062988 -0.217693,0.215057c-0.153917,0.152054 -0.134378,0.446472 -0.217693,0.645157c-0.11782,0.280991 -0.217693,0.215057 -0.217693,0.430099c0,0.215057 0.153933,0.278046 0,0.430115c-0.153917,0.152054 -0.134378,0.23143 -0.217677,0.430099c-0.11782,0.280991 -0.217693,0.430115 -0.217693,0.430115c0,0.215057 0,0.430099 0,0.430099c0,0.215057 -0.217693,0.430115 -0.217693,0.430115c0,0.215057 -0.10585,0.392197 -0.217693,0.860214c-0.050013,0.209305 -0.134363,0.66153 -0.217677,0.860214c-0.11782,0.280991 -0.134378,0.446472 -0.217693,0.645157c-0.11782,0.280991 -0.317565,0.364182 -0.435386,0.645157c-0.083315,0.198685 -0.150751,0.470108 -0.43537,0.860214c-0.180021,0.246735 -0.317565,0.364182 -0.435386,0.645172c-0.083299,0.198669 -0.134363,0.446472 -0.217677,0.645157c-0.11782,0.280991 -0.134378,0.446472 -0.217693,0.645157c-0.11782,0.280991 -0.352087,0.446487 -0.435386,0.645157c-0.117805,0.280975 -0.217677,0.430115 -0.217677,0.645157c0,0 0,0 0,0.215057c0,0 0,0.215057 0,0.430115c0,0 -0.134394,0.016373 -0.217693,0.215042c-0.11782,0.280991 -0.134378,0.23143 -0.217693,0.430115c-0.11782,0.280991 -0.870756,1.935486 -0.870756,1.935486c-0.217693,0 -0.217693,0.215042 -0.217693,0.215042c0,0 -0.217677,0.215057 -0.217677,0.430115c0,0 -0.217693,0.215057 -0.217693,0.215057c0,0.215042 -0.217693,0.430099 -0.217693,0.430099c0,0.215057 0,0.215057 0,0.430115c0,0 -0.217693,0.215042 -0.217693,0.215042c0,0.215057 0,0.215057 0,0.215057c0,0 -0.06376,0.063004 -0.217677,0.215057c-0.153933,0.152069 0,0.430099 0,0.430099c0,0.215057 -0.217693,0.430115 -0.217693,0.645172c0,0 -0.217693,0.215042 -0.217693,0.430099c0,0 0,0.215057 -0.217677,0.430115c0,0 0,0.215042 0,0.430099c0,0 0,0.215057 0,0.215057c0,0.215057 -0.217693,0.430099 -0.217693,0.430099c0,0 0,0.215057 0,0.215057c0,0.215057 0.153933,0.278046 0,0.430115c-0.153933,0.152069 -0.217693,0 -0.217693,0.215042c0,0.215057 0,0.215057 -0.217693,0.430115c0,0 0,0.215042 0,0.215042c0,0.215057 -0.217677,0.430115 -0.217677,0.430115c0,0 0,0.215057 0,0.430115c0,0 0.153933,0.278046 0,0.430115c-0.153933,0.152069 -0.217693,0.215027 -0.217693,0.430084c0,0 0,0 0,0.215057c0,0 0,0 0,0.215057c0,0 0,0.215057 0,0.215057c0,0.215057 0,0.215057 0,0.215057l0,0" id="svg_60" stroke-opacity="null" stroke-width="null" fill="#000000"/>
 </g>
</svg>